<?xml version="1.0" encoding="utf-8"?>
<!-- Generator: Adobe Illustrator 27.5.0, SVG Export Plug-In . SVG Version: 6.00 Build 0)  -->
<svg version="1.1" id="b" xmlns="http://www.w3.org/2000/svg" xmlns:xlink="http://www.w3.org/1999/xlink" x="0px" y="0px"
	 viewBox="0 0 583.4 554.7" style="enable-background:new 0 0 583.4 554.7;" xml:space="preserve">
<style type="text/css">
	.st0{fill:#BCBFA3;}
	.st1{fill:#A6B39D;}
	.st2{fill:#F5A8A0;}
	.st3{opacity:0.51;}
	.st4{fill:#FBCFAA;}
	.st5{fill:#F6B5B0;}
	.st6{fill:#F7BDB4;}
	.st7{fill:#FDDCC3;}
	.st8{fill:#FBD5C7;}
</style>
<path class="st0" d="M461,443.6c-9.3-10.6-4.6-41.3-3-54.3s3.2-19.5,5.9-29s7.5-26.5,9.8-26.3c-36.1-2.1-72.8,10.9-99.5,35.2
	c12.8-10.8,23.2-25.9,27.8-42.1s5.3-50.9,1.1-50.2c-30.9,5.3-61.8,8.5-91.2-4.9c14.9-2.1,31.5-18.5,38.5-31.2
	c6.8-12.5,9-27.3,6.2-41.2c-11.5,2.6-22.9,5.4-34.3,7.9c-5.6,1.2-11.2,2.4-16.8,3.3c-3.2,0.5-10.8,0.3-13.3,2.3
	c10.9-8.9,20-19.8,27-31.9c3.6-6.2,6.6-12.8,8.9-19.6c1.6-4.6,7.1-13.9,3.1-18c-1.6-1.6-3.7-2.5-5.8-3.3
	c-27.6-10.9-61.6-20.6-91.1-14.7c-10.5,2.1-21.5,2.6-25,9.7c4-8,7.4-14.5,14.7-36.5c3.8-11.6,5.5-23.3,7.1-35.3s1.6-23.6-4.1-36
	c-13,12.4-54.6,18.2-82.9,22.6c-14.3,2.2-28.7,4.7-42.5,9.1s-12.8,4.1-18.5,7.2s-17.3,9.3-17.9,12.8c4.5-26.4,1.6-54-8.3-78.9
	c-1-2.5-31,23.5-33.1,26.1C14.5,37.3,7.4,50.2,3.1,64c-1.2,3.8-2,7.3-2.4,10.6c-0.4,0-0.7,0-0.7,0v480c0,0.2,457.8,0,479.2,0
	c25.4,0.6,80.5-1.1,104.1-31c-26-14.4-57.9-17.9-86.4-9.5c22.8-7.5,35-19.4,50.8-36.6c16.6-18.1,24.9-37.3,22.5-61.8
	c-33.1-1.5-56.4,0.3-86.6,14c-8.2,3.7-15.7,8.5-22.7,14L461,443.6z"/>
<polygon class="st0" points="583.4,523.5 583.4,523.5 583.4,523.5 "/>
<path class="st1" d="M444.6,119.1c-15-3-31.2,0.2-43.3,10c22.1-22.7,25.6-62.4,7.9-89.2c-22.6,3.3-43.4,17.9-54.8,38.6
	c-5.6,10.3-8.8,20.5-10,32.3c-0.6,6-0.6,12.1,0,18.1c0.6,6,0.4,15.1,3,16.9c-9.3-6.6-17-15-26.9-20.9c-6.2-3.6-12.8-6.6-19.6-8.7
	s-20.3-4.4-20.3-3.9c0.7,11.8,3.8,23.4,9,34c4.1,8.3,20.8,30.7,29.8,34.3c21.7,8.7,39.3,1.3,62.2-1.1c14-1.5,29.6-5,41.6-12.5
	c4.2-2.6,47.9-34.1,48.4-33.5C464.2,125.9,454.6,121,444.6,119.1L444.6,119.1z"/>
<path class="st2" d="M267.8,248.8c0.7-11.2,8.6-24.7,14-35.4c15.8-31.5,32.1-36.1,74.6-46.6c22.8-5.6,54.1-11.6,76-6.8
	c31.1,6.8,50,6.2,69.6,36.2c29.1,44.5,24.7,92.2,10.8,129.7c-18,48.6-28.6,75.3-53.8,118.9c-13,22.5-38.2,23.3-57.1,6.2
	c-20.8-18.9-40.1-39.7-57.5-62C306.8,340.7,264.5,301.4,267.8,248.8L267.8,248.8L267.8,248.8z"/>
<g class="st3">
	
		<ellipse transform="matrix(0.9547 -0.2975 0.2975 0.9547 -38.3422 138.3977)" class="st4" cx="435.5" cy="195.2" rx="5.6" ry="11.2"/>
	
		<ellipse transform="matrix(0.9993 -3.734956e-02 3.734956e-02 0.9993 -7.9448 14.801)" class="st4" cx="392.2" cy="220" rx="5.6" ry="11.2"/>
	<ellipse transform="matrix(0.2349 -0.972 0.972 0.2349 65.5234 699.5985)" class="st4" cx="477.2" cy="308.2" rx="11.2" ry="5.6"/>
	
		<ellipse transform="matrix(0.9822 -0.1877 0.1877 0.9822 -46.6271 74.5323)" class="st4" cx="370.2" cy="283.4" rx="5.6" ry="11.2"/>
	<ellipse transform="matrix(0.9822 -0.1877 0.1877 0.9822 -42.6256 64.2759)" class="st4" cx="318" cy="257.2" rx="5.6" ry="11.2"/>
	
		<ellipse transform="matrix(0.9993 -3.734956e-02 3.734956e-02 0.9993 -10.0601 16.3056)" class="st4" cx="431.4" cy="277.4" rx="5.6" ry="11.2"/>
	
		<ellipse transform="matrix(0.1811 -0.9835 0.9835 0.1811 4.3098 744.8103)" class="st4" cx="449.4" cy="369.8" rx="11.2" ry="5.6"/>
	
		<ellipse transform="matrix(0.9547 -0.2975 0.2975 0.9547 -49.7299 154.5114)" class="st4" cx="482.8" cy="240.6" rx="5.6" ry="11.2"/>
	
		<ellipse transform="matrix(7.282275e-02 -0.9973 0.9973 7.282275e-02 117.4689 529.5974)" class="st4" cx="343.6" cy="201.6" rx="11.2" ry="5.6"/>
	<ellipse transform="matrix(0.917 -0.399 0.399 0.917 -102.1751 161.4358)" class="st4" cx="336.7" cy="326.2" rx="5.6" ry="11.2"/>
	
		<ellipse transform="matrix(0.9822 -0.1877 0.1877 0.9822 -71.6107 86.8947)" class="st4" cx="422.9" cy="421.5" rx="5.5" ry="11.2"/>
	
		<ellipse transform="matrix(0.9822 -0.1877 0.1877 0.9822 -56.0123 81.9717)" class="st4" cx="404.8" cy="336.7" rx="5.6" ry="11.2"/>
	<ellipse transform="matrix(0.917 -0.399 0.399 0.917 -121.7287 180.0892)" class="st4" cx="371.8" cy="382.5" rx="5.6" ry="11.2"/>
</g>
<path class="st1" d="M332.4,319c0,1.1-8.2-3.7-8.8-4.1c-4.9-3.1-8.6-6.7-12.9-11.4c1.3,7.3,0.7,15.2-1.8,21.8
	c-0.8,1.9-1.4,3.9-2.1,6c-1.5-0.8-2.2-3.2-2.7-5.4c-1.5-7.3-1.4-14.9-2.3-22.3c-0.9-7.4-1.1-7-1.9-10.4s-3.2-8.2-3-8.8
	c-2.4,6.5-5.2,12-10.5,13.4c-5.5,1.5-11.5-1.2-15.7-6.6c5.4-9.7,9.7-20.6,12.9-32.2c3.2-11.5,2.9-8.8,1.8-13.6
	c-1.2-4.7-4.1-8.9-6.6-11.9c-3.8-4.1-7.6-7.9-11.6-11.6c3.4-4.4,10.1-5.9,14.5-4.9c1,0.3,0.1-14.5,0-15.7c-0.6-4.3-1.3-9.6-2.5-13.6
	c2.3,1.7,3.9,4.8,5.2,7.9c0.7,1.8,3.9,6,3.9,8.1c0.3-14.5,14.1-30.7,15.1-28.7c7.8,15.7,7.7,38.4-0.3,53.9
	c15.5-15.6,36.4-19.7,54.4-10.5c-3.2,15-10.2,28.2-19.5,36.5c-4.4,4-9.3,6.8-14.3,8.4c-5.1,1.6-10.8-0.3-14.3,2.3
	c13.4,11,23.2,30.2,22.7,53.1L332.4,319z"/>
<path class="st5" d="M214,146.1c11.2,0.7,24.7,8.6,35.4,13.9c31.5,15.8,36.1,32.1,46.6,74.6c5.6,22.8,11.6,54.1,6.8,76
	c-6.8,31.1-6.2,50-36.2,69.6c-44.5,29.1-92.2,24.7-129.7,10.9c-48.6-18-75.3-28.6-118.9-53.8c-22.5-13-23.3-38.2-6.2-57.1
	c18.9-20.8,39.7-40.1,62-57.5c48.3-37.6,87.6-79.9,140.1-76.6l0,0H214z"/>
<path class="st6" d="M109.4,503.1c-7.4-8.4-11.4-23.5-15.1-34.9c-11.1-33.5-2.9-48.2,19.8-85.7c12.2-20.1,30.1-46.5,48.9-58.6
	c26.8-17.2,39.7-31,74.8-23.6c52,10.9,82.6,47.7,99.4,84c21.7,47.1,33,73.5,46,122.1c6.7,25.1-10.5,43.5-36,44.8
	c-28,1.4-56.5,0.3-84.5-3.2C201.9,540.5,144.3,542.5,109.4,503.1C109.4,503.1,109.4,503.1,109.4,503.1z"/>
<path class="st1" d="M160.8,294.5c0.9-0.5,2.8,11,2.9,11.8c1,7,0.7,12.9,0,20c4.8-5,11.5-8.1,18.4-8.6c2.1,0,4.1-0.3,6.2-0.6
	c0.4,2.1-1,4-2.4,5.6c-4.7,5.2-10.7,8.8-15.9,13.4s-4.8,4.6-6.8,7.2s-4.2,7.6-4.8,7.6c6.8-0.4,13,0,17.9,5.3
	c5,5.5,7.1,13.5,5.7,20.8c-11.4-1.3-23-0.9-34.3,1.1s-9,1-11.9,4.6s-4.1,8.9-4.7,13.2c-0.6,6.2-0.9,12.3-1.1,18.6
	c-5.8-1.7-11.7-8.5-14-13.9c-0.5-1.3-11.5,6.9-12.3,7.6c-3,2.7-6.7,6.1-9,9.4c-0.3-3.4,1.1-6.7,2.6-9.6c0.9-1.7,2-7.3,3.7-8.3
	c-11.6,6.7-34-1-33.1-3.1c6.9-16.3,24.9-27.2,42.6-25.8c-23.1-9.8-40.9-31.3-46.1-55.9c14-3.7,29.3-2.2,42.3,4.2
	c6.2,3,11.8,7.1,16.6,12s7.3,12.2,11.7,14.9c-0.7-20.4,7.6-40.6,25.9-51.2L160.8,294.5z"/>
<g class="st3">
	<ellipse transform="matrix(0.9712 -0.2384 0.2384 0.9712 -38.7662 48.9562)" class="st7" cx="183" cy="184.7" rx="11.2" ry="5"/>
	<ellipse transform="matrix(0.9712 -0.2384 0.2384 0.9712 -61.942 73.2402)" class="st7" cx="271.8" cy="292.7" rx="9" ry="5.6"/>
	<ellipse transform="matrix(0.9887 -0.15 0.15 0.9887 -35.2944 38.4143)" class="st7" cx="237" cy="253.2" rx="11.2" ry="5.6"/>
	
		<ellipse transform="matrix(0.9547 -0.2975 0.2975 0.9547 -63.6792 62.8502)" class="st7" cx="174.7" cy="240.6" rx="11.2" ry="5.6"/>
	<ellipse transform="matrix(0.9887 -0.15 0.15 0.9887 -42.394 31.6108)" class="st7" cx="188.4" cy="296.9" rx="11.2" ry="5.6"/>
	
		<ellipse transform="matrix(0.9992 -4.029777e-02 4.029777e-02 0.9992 -7.9557 10.2732)" class="st7" cx="250.9" cy="202.5" rx="9.5" ry="5.6"/>
	<ellipse transform="matrix(0.866 -0.5 0.5 0.866 -92.7797 88.2988)" class="st7" cx="118.4" cy="217.3" rx="11.2" ry="5.2"/>
	
		<ellipse transform="matrix(0.9547 -0.2975 0.2975 0.9547 -78.9543 48.0458)" class="st7" cx="118.4" cy="283.4" rx="11.2" ry="5.6"/>
	<ellipse transform="matrix(0.866 -0.5 0.5 0.866 -123.9525 70.2849)" class="st7" cx="69.2" cy="266.4" rx="11.2" ry="5.6"/>
	<ellipse transform="matrix(0.9946 -0.1036 0.1036 0.9946 -31.7282 5.6012)" class="st7" cx="38" cy="308.2" rx="11.2" ry="5.6"/>
</g>
<g class="st3">
	
		<ellipse transform="matrix(0.4647 -0.8854 0.8854 0.4647 -184.8294 361.5341)" class="st8" cx="206.6" cy="333.6" rx="5.6" ry="11.2"/>
	
		<ellipse transform="matrix(0.6802 -0.733 0.733 0.6802 -212.4288 266.2067)" class="st8" cx="198.9" cy="376.6" rx="5.6" ry="11.2"/>
	
		<ellipse transform="matrix(0.8534 -0.5212 0.5212 0.8534 -153.3069 221.5149)" class="st8" cx="317.2" cy="383.3" rx="4.2" ry="11.2"/>
	
		<ellipse transform="matrix(0.5618 -0.8273 0.8273 0.5618 -261.4986 380.2119)" class="st8" cx="228.1" cy="436.9" rx="5.6" ry="11.2"/>
	
		<ellipse transform="matrix(0.5618 -0.8273 0.8273 0.5618 -307.6867 340.2921)" class="st8" cx="167.4" cy="460.6" rx="5.6" ry="11.2"/>
	
		<ellipse transform="matrix(0.6802 -0.733 0.733 0.6802 -199.9994 320.373)" class="st8" cx="267.2" cy="389.4" rx="5.6" ry="11.2"/>
	<ellipse transform="matrix(0.917 -0.399 0.399 0.917 -149.9666 173.0343)" class="st8" cx="340.7" cy="446.8" rx="4.7" ry="11.2"/>
	<ellipse transform="matrix(0.4647 -0.8854 0.8854 0.4647 -146.9116 418.8099)" class="st8" cx="273" cy="330.9" rx="4" ry="11.2"/>
	
		<ellipse transform="matrix(0.7567 -0.6537 0.6537 0.7567 -228.0513 193.6405)" class="st8" cx="146.2" cy="403.2" rx="5.6" ry="11.2"/>
	
		<ellipse transform="matrix(0.3663 -0.9305 0.9305 0.3663 -316.2917 527.8705)" class="st8" cx="229.4" cy="496.1" rx="5.6" ry="11.2"/>
	
		<ellipse transform="matrix(0.8534 -0.5212 0.5212 0.8534 -211.7991 259.9606)" class="st8" cx="356.3" cy="506.6" rx="5.5" ry="11.7"/>
	<ellipse transform="matrix(0.917 -0.399 0.399 0.917 -177.9483 83.0985)" class="st8" cx="110.7" cy="469" rx="4.2" ry="11.2"/>
	
		<ellipse transform="matrix(0.4647 -0.8854 0.8854 0.4647 -368.9662 425.3894)" class="st8" cx="167.4" cy="517.9" rx="4.7" ry="11.2"/>
	<ellipse transform="matrix(0.1066 -0.9943 0.9943 0.1066 -312.617 728.453)" class="st8" cx="249" cy="538.2" rx="4" ry="11.7"/>
	
		<ellipse transform="matrix(0.1066 -0.9943 0.9943 0.1066 -244.5072 812.5578)" class="st8" cx="329.9" cy="542.3" rx="4" ry="11.7"/>
	
		<ellipse transform="matrix(0.5618 -0.8273 0.8273 0.5618 -245.2072 437.3922)" class="st8" cx="290.3" cy="450.2" rx="5.6" ry="11.2"/>
	
		<ellipse transform="matrix(0.3663 -0.9305 0.9305 0.3663 -289.3548 597.4962)" class="st8" cx="294" cy="511.2" rx="5.6" ry="11.2"/>
</g>
</svg>
