<?xml version="1.0" encoding="UTF-8"?>
<svg id="b" xmlns="http://www.w3.org/2000/svg" version="1.1" viewBox="0 0 583.4 554.7">
  <defs>
    <style>
      .cls-1 {
        fill: #423a3c;
      }

      .cls-1, .cls-2, .cls-3, .cls-4, .cls-5, .cls-6 {
        stroke-width: 0px;
      }

      .cls-2 {
        fill: #1e2a20;
      }

      .cls-3 {
        fill: #32292a;
      }

      .cls-4 {
        fill: #bcbfa3;
      }

      .cls-5 {
        fill: #152115;
      }

      .cls-6 {
        fill: #3d3335;
      }
    </style>
  </defs>
  <path class="cls-2" d="M461,443.6c-9.3-10.6-4.6-41.3-3-54.3s3.2-19.5,5.9-29,7.5-26.5,9.8-26.3c-36.1-2.1-72.8,10.9-99.5,35.2,12.8-10.8,23.2-25.9,27.8-42.1s5.3-50.9,1.1-50.2c-30.9,5.3-61.8,8.5-91.2-4.9,14.9-2.1,31.5-18.5,38.5-31.2,6.8-12.5,9-27.3,6.2-41.2-17.3,3.9-34.5,8.3-52,11.4s-17.5,2.8-26.3,3.4-17.3-1.4-22.8,3.5c19.3-17,42.4-33.3,58.1-53.8,1.5-2,16.4-24.8,14.8-25.6-19.2-9.8-40.5-15-62-15.5-10.7-.3-21.5.6-32,2.7s-21.5,2.6-25,9.7c4-8,7.4-14.5,14.7-36.5,3.8-11.6,5.5-23.3,7.1-35.3s1.6-23.6-4.1-36c-13,12.4-54.6,18.2-82.9,22.6-14.3,2.2-28.7,4.7-42.5,9.1s-12.8,4.1-18.5,7.2-17.3,9.3-17.9,12.8c4.5-26.4,1.6-54-8.3-78.9-1-2.5-31,23.5-33.1,26.1C14.5,37.3,7.4,50.2,3.1,64c-1.2,3.8-2,7.3-2.4,10.6-.4,0-.7,0-.7,0v480c0,.2,457.8,0,479.2,0,25.4.6,80.5-1.1,104.1-31-26-14.4-57.9-17.9-86.4-9.5,22.8-7.5,35-19.4,50.8-36.6,16.6-18.1,24.9-37.3,22.5-61.8-33.1-1.5-56.4.3-86.6,14-8.2,3.7-15.7,8.5-22.7,14Z"/>
  <polygon class="cls-4" points="583.4 523.5 583.4 523.5 583.4 523.5 583.4 523.5"/>
  <path class="cls-5" d="M444.6,119.1c-15-3-31.2.2-43.3,10,22.1-22.7,25.6-62.4,7.9-89.2-22.6,3.3-43.4,17.9-54.8,38.6-5.6,10.3-8.8,20.5-10,32.3-.6,6-.6,12.1,0,18.1s.4,15.1,3,16.9c-9.3-6.6-17-15-26.9-20.9-6.2-3.6-12.8-6.6-19.6-8.7s-20.3-4.4-20.3-3.9c.7,11.8,3.8,23.4,9,34,4.1,8.3,20.8,30.7,29.8,34.3,21.7,8.7,39.3,1.3,62.2-1.1,14-1.5,29.6-5,41.6-12.5,4.2-2.6,47.9-34.1,48.4-33.5-7.4-7.6-17-12.5-27.1-14.5Z"/>
  <path class="cls-3" d="M267.8,248.8c.7-11.2,8.6-24.7,14-35.4,15.8-31.5,32.1-36.1,74.6-46.6,22.8-5.6,54.1-11.6,76-6.8,31.1,6.8,50,6.2,69.6,36.2,29.1,44.5,24.7,92.2,10.8,129.7-18,48.6-28.6,75.3-53.8,118.9-13,22.5-38.2,23.3-57.1,6.2-20.8-18.9-40.1-39.7-57.5-62-37.6-48.3-79.9-87.6-76.6-140.1h0Z"/>
  <path class="cls-6" d="M214,146.1c11.2.7,24.7,8.6,35.4,13.9,31.5,15.8,36.1,32.1,46.6,74.6,5.6,22.8,11.6,54.1,6.8,76-6.8,31.1-6.2,50-36.2,69.6-44.5,29.1-92.2,24.7-129.7,10.9-48.6-18-75.3-28.6-118.9-53.8-22.5-13-23.3-38.2-6.2-57.1,18.9-20.8,39.7-40.1,62-57.5,48.3-37.6,87.6-79.9,140.1-76.6h0Z"/>
  <path class="cls-1" d="M109.4,503.1c-7.4-8.4-11.4-23.5-15.1-34.9-11.1-33.5-2.9-48.2,19.8-85.7,12.2-20.1,30.1-46.5,48.9-58.6,26.8-17.2,39.7-31,74.8-23.6,52,10.9,82.6,47.7,99.4,84,21.7,47.1,33,73.5,46,122.1,6.7,25.1-10.5,43.5-36,44.8-28,1.4-56.5.3-84.5-3.2-60.8-7.5-118.4-5.5-153.3-44.9h0Z"/>
  <path class="cls-5" d="M160.8,294.5c.9-.5,2.8,11,2.9,11.8,1,7,.7,12.9,0,20,4.8-5,11.5-8.1,18.4-8.6,2.1,0,4.1-.3,6.2-.6.4,2.1-1,4-2.4,5.6-4.7,5.2-10.7,8.8-15.9,13.4s-4.8,4.6-6.8,7.2-4.2,7.6-4.8,7.6c6.8-.4,13,0,17.9,5.3,5,5.5,7.1,13.5,5.7,20.8-11.4-1.3-23-.9-34.3,1.1s-9,1-11.9,4.6-4.1,8.9-4.7,13.2c-.6,6.2-.9,12.3-1.1,18.6-5.8-1.7-11.7-8.5-14-13.9-.5-1.3-11.5,6.9-12.3,7.6-3,2.7-6.7,6.1-9,9.4-.3-3.4,1.1-6.7,2.6-9.6.9-1.7,2-7.3,3.7-8.3-11.6,6.7-34-1-33.1-3.1,6.9-16.3,24.9-27.2,42.6-25.8-23.1-9.8-40.9-31.3-46.1-55.9,14-3.7,29.3-2.2,42.3,4.2,6.2,3,11.8,7.1,16.6,12s7.3,12.2,11.7,14.9c-.7-20.4,7.6-40.6,25.9-51.2Z"/>
</svg>