<?xml version="1.0" encoding="UTF-8"?>
<svg id="b" data-name="Calque 2" xmlns="http://www.w3.org/2000/svg" viewBox="0 0 583.38 554.68">
  <defs>
    <style>
      .d {
        fill: #ffc6c2;
      }

      .e {
        fill: #bcbfa3;
      }
    </style>
  </defs>
  <g id="c" data-name="Calque 1">
    <path class="e" d="m480,554.57S0,554.8,0,554.57C0,551.46,0,129.77,0,74.57,0,74.57,159.24,83.8,288.84,176.37c40.86,29.19,95.05,94.82,120.34,138.2,62.93,107.93,70.81,240,70.81,240Z"/>
    <path class="e" d="m57,.17c9.86,24.89,12.77,52.5,8.3,78.89,55.51-45.33,137.4-55.53,202.34-25.21-15.93,32.07-32.96,65.45-62.13,86.21-15.75,11.21-34.23,18.06-53,22.65-47.78,11.69-98.94,9.21-145.37-7.05-4.36-18.23-3.07-36.15-5.57-54.41-1.87-13.62-2.77-23.53,1.52-37.25,4.31-13.79,11.44-26.7,20.76-37.73C26.02,23.69,56-2.35,57,.17Z"/>
    <path class="e" d="m583.38,523.53c-27.12-15.05-60.59-18.16-90.01-8.38,25.21-7.36,37.83-19.61,54.41-37.73,16.58-18.11,24.88-37.32,22.54-61.77-33.13-1.51-56.37.28-86.59,13.95-22.48,10.17-41.12,28.39-52.23,50.41-11.11,22.02-14.7,47.68-10.54,71.99.85,2.55,42.53,1.93,47.2,2.14,13.71.62,86.94,5.24,115.22-30.62Z"/>
    <path class="e" d="m444.61,119.12c-15.02-3.02-31.24.22-43.27,10.05,22.06-22.68,25.6-62.41,7.94-89.25-22.63,3.28-43.42,17.94-54.78,38.61-6.28,11.43-9.61,24.57-9.87,37.77-.25,12.38,4.82,22.87,5.95,34.59-12.55-9.42-24.17-18.01-39.78-21.02-3.35-.65-40.11-1.09-38.87,4.55,3.76,17.04,16.51,26.71,28.28,32.63,24.37,12.26,54.93,15.4,81.44,12.53,13.98-1.51,29.58-4.97,41.62-12.47,4.21-2.62,47.94-34.11,48.4-33.48-7.38-7.61-16.95-12.48-27.07-14.51Z"/>
    <path class="d" d="m267.81,248.82c.69-11.19,8.6-24.71,13.95-35.36,15.82-31.54,32.06-36.14,74.58-46.62,22.79-5.61,54.14-11.61,76.04-6.82,31.09,6.79,50,6.17,69.61,36.22,29.06,44.52,24.7,92.18,10.85,129.66-17.97,48.64-28.64,75.31-53.82,118.86-13,22.49-38.23,23.31-57.09,6.23-20.81-18.85-40.11-39.72-57.5-62.02-37.64-48.27-79.85-87.58-76.62-140.14Z"/>
    <path class="d" d="m214.01,146.1c11.19.69,24.71,8.6,35.36,13.95,31.54,15.82,36.14,32.06,46.62,74.58,5.61,22.79,11.61,54.14,6.82,76.04-6.79,31.09-6.17,50-36.22,69.61-44.52,29.06-92.18,24.7-129.66,10.85-48.64-17.97-75.31-28.64-118.86-53.82-22.49-13-23.31-38.23-6.23-57.09,18.85-20.81,39.72-40.11,62.02-57.5,48.27-37.64,87.58-79.85,140.14-76.62Z"/>
    <path class="d" d="m109.38,503.11c-7.43-8.4-11.39-23.55-15.14-34.87-11.11-33.49-2.89-48.23,19.77-85.7,12.15-20.09,30.08-46.49,48.95-58.6,26.79-17.18,39.71-30.99,74.83-23.61,52.03,10.93,82.64,47.72,99.36,84.01,21.69,47.1,33,73.51,45.99,122.11,6.71,25.1-10.55,43.52-35.96,44.77-28.04,1.39-56.45.28-84.52-3.2-60.75-7.52-118.39-5.46-153.28-44.92Z"/>
    <path class="e" d="m160.06,271.04c-12.27,9.16-20.7,23.4-21.41,38.92-2.15-31.57-29.36-60.74-61.12-65.52-12.67,19.03-15.65,44.3-7.86,66.56,4.31,12.31,11.87,23.56,21.52,32.57,9.05,8.45,20.25,11.68,29.72,18.67-15.39,3.04-29.55,5.96-42.21,15.57-2.72,2.06-27.6,29.13-22.58,31.97,15.19,8.58,30.9,5.55,43.18.74,25.4-9.95,48.15-30.59,63.72-52.24,8.21-11.41,16.06-25.33,18.51-39.31.86-4.88,6.63-58.47,7.41-58.39-10.59.41-20.61,4.28-28.88,10.45Z"/>
  </g>
</svg>