<?xml version="1.0" encoding="UTF-8"?><svg id="Calque_1" xmlns="http://www.w3.org/2000/svg" viewBox="0 0 800 640"><defs><style>.cls-1{fill:#6c8055;}.cls-1,.cls-2,.cls-3,.cls-4{stroke-width:0px;}.cls-2{fill:#1c081f;}.cls-5{fill:none;stroke:#bdccd4;stroke-miterlimit:10;stroke-width:4px;}.cls-3{fill:#bdccd4;}.cls-4{fill:#875d7b;}</style></defs><path class="cls-2" d="M389.93,392.32c-2.34,0-4.64-.63-6.86-1.87-3.15-1.82-12.56-9.29-2.17-29.38,5.92-11.45,22.07-59.91,25.27-74.46.52-2.38-.12-7.38-1.12-8.77-14.45-19.95-23.29-42.14-31.12-63.16-1.48-3.96-1.3-7.43.51-10.32,2.71-4.3,8.32-5.85,12.55-6.4.73-.09,1.48-.14,2.23-.14,5.43,0,12.43,2.59,15.8,9.87,3.69,7.97,7.84,15.94,11.85,23.64l1,1.91c.79,1.52,1.75,3.04,2.85,4.72,4.58-10.44,8.24-20.04,11.44-29.95,1.44-4.45,4-7.63,7.63-9.45,2.17-1.09,4.65-1.64,7.36-1.64,2.88,0,5.37.64,6.59,1.02,6.75,2.09,10.62,7.83,9.64,14.27-1.24,8.17-2.95,14.6-5.37,20.21-5.73,19.35-25.47,82.2-48.35,141.96-2.19,6.36-7.79,14.44-14.87,17.03-1.61.59-3.24.89-4.85.89h0Z"/><path class="cls-3" d="M447.13,198.95c2.58,0,4.81.56,6,.93,5.85,1.81,9.1,6.55,8.26,12.06-1.22,8.05-2.9,14.35-5.27,19.83-5.7,19.25-25.43,82.1-48.33,141.92-2.06,5.97-7.23,13.51-13.69,15.87-1.4.51-2.79.77-4.16.77h0c-2,0-3.96-.54-5.88-1.61-2.75-1.59-10.94-8.2-1.37-26.71,5.97-11.54,22.23-60.31,25.44-74.95.6-2.74,0-8.37-1.46-10.37-14.3-19.75-23.09-41.79-30.87-62.68-1.25-3.35-1.13-6.22.33-8.55,2.29-3.64,7.31-4.99,11.11-5.48.64-.08,1.3-.13,1.98-.13,5.23,0,11.14,2.56,13.99,8.71,3.71,8.03,7.88,16.03,11.92,23.77l.97,1.87c1,1.92,2.22,3.78,3.63,5.93.42.65.87,1.32,1.33,2.03,5.3-11.81,9.45-22.5,13.01-33.51,1.27-3.92,3.49-6.7,6.62-8.27,2.15-1.08,4.41-1.43,6.46-1.43M447.13,194.95c-3.03,0-5.8.62-8.25,1.85-4.12,2.07-7.03,5.64-8.64,10.62-2.82,8.74-6,17.23-9.86,26.28-.27-.46-.52-.91-.75-1.36l-.97-1.87c-4.01-7.7-8.16-15.66-11.83-23.6-3.76-8.13-11.57-11.03-17.62-11.03-.84,0-1.67.05-2.49.16-6.68.86-11.51,3.39-13.98,7.32-1.49,2.36-2.82,6.38-.7,12.08,7.87,21.15,16.78,43.48,31.37,63.63.64,1.01,1.21,5.27.79,7.17-3.18,14.47-19.21,62.61-25.09,73.97-4.58,8.85-6,16.47-4.23,22.64,1.57,5.46,5.15,8.22,7.15,9.37l.03.02h.03c2.52,1.42,5.15,2.13,7.83,2.13,1.85,0,3.71-.34,5.54-1.01,7.71-2.82,13.62-11.19,16.07-18.26,22.85-59.68,42.57-122.43,48.34-141.93,2.47-5.75,4.2-12.3,5.46-20.59,1.13-7.46-3.3-14.09-11.03-16.48-1.63-.5-4.19-1.11-7.18-1.11h0Z"/><path class="cls-2" d="M544.66,604.58c-2.34,0-4.64-.63-6.86-1.87-3.15-1.82-12.56-9.29-2.17-29.38,5.92-11.45,22.07-59.91,25.27-74.46.52-2.38-.12-7.38-1.12-8.77-14.45-19.95-23.3-42.14-31.12-63.15-1.47-3.96-1.3-7.43.51-10.32,2.71-4.3,8.32-5.85,12.55-6.4.73-.09,1.48-.14,2.23-.14,5.43,0,12.43,2.59,15.8,9.87,3.69,7.98,7.85,15.95,11.86,23.67l.98,1.89c.79,1.52,1.75,3.04,2.85,4.72,4.58-10.44,8.24-20.04,11.44-29.95,1.44-4.45,4-7.63,7.63-9.45,2.17-1.09,4.65-1.64,7.36-1.64,2.88,0,5.37.64,6.59,1.02,6.75,2.09,10.62,7.83,9.64,14.27-1.24,8.17-2.95,14.6-5.37,20.21-5.73,19.35-25.47,82.2-48.35,141.96-2.19,6.36-7.79,14.44-14.87,17.03-1.61.59-3.24.89-4.85.89h0Z"/><path class="cls-3" d="M601.87,411.2c2.58,0,4.81.56,6,.93,5.85,1.81,9.1,6.55,8.26,12.06-1.22,8.05-2.9,14.35-5.27,19.83-5.7,19.25-25.43,82.1-48.33,141.92-2.06,5.97-7.23,13.51-13.69,15.87-1.4.51-2.79.77-4.16.77h0c-2,0-3.96-.54-5.88-1.61-2.75-1.59-10.94-8.2-1.37-26.71,5.97-11.54,22.23-60.31,25.44-74.95.6-2.74,0-8.37-1.46-10.37-14.3-19.75-23.09-41.79-30.87-62.68-1.25-3.35-1.13-6.22.33-8.55,2.29-3.64,7.31-4.99,11.11-5.48.64-.08,1.3-.13,1.98-.13,5.23,0,11.14,2.56,13.98,8.71,3.71,8.03,7.88,16.03,11.92,23.77l.97,1.87c1,1.92,2.22,3.78,3.63,5.93.42.65.87,1.32,1.33,2.03,5.3-11.81,9.45-22.5,13.01-33.51,1.27-3.92,3.49-6.7,6.62-8.27,2.15-1.08,4.41-1.43,6.46-1.43M601.87,407.2c-3.03,0-5.8.62-8.25,1.85-4.12,2.07-7.03,5.64-8.64,10.62-2.82,8.74-6,17.23-9.86,26.28-.27-.46-.52-.91-.75-1.36l-.97-1.87c-4.01-7.7-8.16-15.66-11.83-23.6-3.76-8.14-11.57-11.03-17.62-11.03-.84,0-1.67.05-2.49.16-6.68.86-11.51,3.39-13.98,7.32-1.49,2.36-2.82,6.38-.7,12.08,7.87,21.15,16.78,43.48,31.37,63.63.64,1.01,1.21,5.27.79,7.17-3.18,14.47-19.21,62.61-25.09,73.97-4.58,8.85-6,16.47-4.23,22.64,1.57,5.46,5.15,8.22,7.15,9.37l.03.02h.03c2.52,1.42,5.15,2.13,7.83,2.13,1.85,0,3.71-.34,5.54-1.01,7.7-2.82,13.62-11.19,16.07-18.26,22.85-59.68,42.57-122.43,48.34-141.93,2.47-5.75,4.2-12.3,5.46-20.59,1.13-7.46-3.3-14.09-11.03-16.48-1.63-.5-4.19-1.11-7.18-1.11h0Z"/><path class="cls-2" d="M309.67,392.9c-7.55,0-13.35-5.59-14.45-13.9-2.77-21-12.32-105.51-13.11-125.57-.85-21.62-.44-40.26,13.23-49.46,5.06-3.41,12.56-5.28,21.12-5.28,21.87,0,47.85,11.96,52.93,34.13,1.14,4.96,2.38,11.47,1.86,17.81-2.19,27.14-17.97,41.49-45.64,41.49,0,0-4-.02-5.66-.03.25,14.52,2.62,41.48,4.37,61.42.95,10.79,1.7,19.31,1.76,22.05.26,10.87-9.02,17.05-15.83,17.33-.2,0-.41.01-.61.01ZM321.64,229.49c-1.82,0-3.64.22-5.42.67-2,.7-3.7,13.4-.85,29.65.24,1.39,2.9,2.29,6.77,2.29h0c3.72,0,8.11-.86,10.66-2.1,4.71-2.27,6.29-7.72,4.85-16.66-1.95-12.05-10.87-13.85-16.02-13.85Z"/><path class="cls-3" d="M316.47,200.69c20.46,0,46.02,10.92,50.98,32.58,1.28,5.6,2.28,11.55,1.82,17.21-2.11,26.06-17.34,39.65-43.64,39.65-.18,0-.36,0-.54,0-2-.01-7.14-.04-7.14-.04.07,21.35,5.97,77.74,6.16,85.52.22,9.3-7.73,15.03-13.91,15.29-.17,0-.35.01-.52.01-6.03,0-11.43-4.32-12.47-12.17-2.77-21-12.32-105.61-13.09-125.38-.82-20.89-.56-39.03,12.35-47.73,4.9-3.3,12.07-4.94,20-4.94M322.15,264.1c4.15,0,8.78-.96,11.54-2.3,5.73-2.77,7.52-9.11,5.95-18.78-1.89-11.69-10.21-15.53-17.99-15.53-2.05,0-4.06.27-5.9.73-4.34,1.08-4.94,17.09-2.34,31.93.5,2.87,4.35,3.95,8.74,3.95M316.47,196.69c-9.08,0-16.77,1.94-22.24,5.62-14.53,9.78-14.99,28.97-14.12,51.2.79,20.11,10.35,104.73,13.12,125.75,1.23,9.36,7.84,15.64,16.43,15.64.23,0,.46,0,.69-.01,8.78-.36,18.01-8.24,17.74-19.38-.07-2.81-.78-10.93-1.77-22.18-1.67-19-3.9-44.41-4.32-59.23,1.16,0,2.31.01,3.04.02h.57c28.46,0,45.37-15.38,47.63-43.32.53-6.62-.74-13.32-1.91-18.42-2.54-11.07-10.01-20.4-21.6-26.99-9.72-5.52-21.85-8.69-33.28-8.69h0ZM317.31,231.96c1.42-.31,2.9-.47,4.33-.47,5.51,0,12.41,2.11,14.04,12.17,1.91,11.81-2.35,13.87-3.74,14.54-1.95.94-5.94,1.9-9.8,1.9-2.97,0-4.41-.57-4.84-.86-2.46-14.21-1.36-24.86,0-27.28h0Z"/><path class="cls-2" d="M209.92,517.02c-1.05,0-2.11-.03-3.16-.08-12.34-.62-25.76-8.03-27.56-20.97-3.79-27.34-10.79-109.16-10.75-138.45,0-5.55.03-22.35,13.27-22.35.28,0,.56,0,.86.02,8.65.48,14.16,8.48,16.36,23.77,1.33,9.23,1.64,18.5,1.93,27.45.3,9.22.62,18.75,2.06,28.12.25,1.61,1.06,3.32,7.58,3.32.26,0,.52,0,.79,0,.46,0,.93-.01,1.38-.01,26.3,0,44.15,13.57,50.27,38.2,3.54,14.25.47,28.53-8.65,40.19-10.17,13.01-26.77,20.78-44.39,20.78ZM210.62,484.51c.47.39,1.62.8,3.51.8h0c4.48,0,11.21-2.35,15.4-7.52,3.65-4.5,4.78-10.21,3.36-16.96-1.68-7.98-11.91-12.91-20.42-12.91-2.22,0-4.21.34-5.81.99-.82,5.18,2.08,31.88,3.96,35.61Z"/><path class="cls-3" d="M181.72,337.17c.24,0,.49,0,.75.02,11.1.62,13.63,16.09,14.5,22.06,2.69,18.63,1.13,36.99,4,55.6.62,4,4.25,5.02,9.55,5.02.27,0,.55,0,.83,0,.45,0,.9-.01,1.35-.01,25.74,0,42.59,13.57,48.33,36.68,7.6,30.6-17.63,58.49-51.1,58.49-1.01,0-2.04-.03-3.06-.08-11.85-.6-24.07-7.65-25.68-19.24-3.95-28.51-10.77-109.34-10.73-138.17,0-5.5,0-20.35,11.27-20.35M214.13,487.32c8.93,0,24.7-7.99,20.72-26.9-1.94-9.22-13.27-14.5-22.38-14.5-2.82,0-5.43.51-7.48,1.56-1.72,3.72,1.87,34.93,4.02,38.27.93,1.03,2.79,1.58,5.12,1.58M181.72,333.17v4-4h0c-6.56,0-11.41,3.86-13.66,10.87-1.6,4.98-1.61,10.49-1.61,13.45-.04,29.99,6.88,110.68,10.77,138.76,1.94,14.02,16.28,22.03,29.44,22.69,1.09.05,2.19.08,3.27.08,18.23,0,35.42-8.05,45.97-21.55,9.51-12.16,12.71-27.05,9.02-41.91-3.11-12.52-9.2-22.35-18.11-29.21-9.04-6.97-20.52-10.5-34.11-10.5-.47,0-.95,0-1.42.01-.26,0-.51,0-.75,0-5.35,0-5.52-1.1-5.6-1.63-1.43-9.26-1.74-18.73-2.04-27.89-.3-9.01-.6-18.33-1.95-27.67-2.36-16.37-8.5-24.94-18.23-25.48-.33-.02-.65-.03-.97-.03h0ZM208.72,448.91s0,0,0,0h0ZM208.54,450.38c1.14-.31,2.47-.47,3.93-.47,7.76,0,17.03,4.55,18.46,11.33,1.29,6.14.3,11.28-2.95,15.29-3.78,4.66-9.83,6.78-13.85,6.78-.92,0-1.55-.12-1.91-.22-1.69-5.09-4.01-26.17-3.68-32.71h0Z"/><path class="cls-2" d="M240.84,304.15c-27.15,0-41.32-12.61-48.44-23.19-10.06-14.94-12.13-35.49-5.28-52.34,6.32-15.55,19.47-24.34,40.2-26.87,1.88-.23,3.74-.34,5.53-.34,12.96,0,23.81,6.07,31.36,17.55,9.05,13.75,9.91,26.93,2.57,39.17-3.81,6.35-15.04,9.22-21.66,9.6-5.98.34-14.87.52-27.11.54,1.3,3.88,5.47,6.35,12.43,7.36,4.52.65,8.11.74,11.02.74h0c1.31,0,2.61-.02,3.96-.04,1.47-.02,2.98-.04,4.61-.04,1.03,0,2.11,0,3.25.03,9.9.21,15.61,3.44,17.45,9.88.8,2.81.06,6-2.02,8.77-2.59,3.43-9.53,9.19-26.9,9.19-.32,0-.97,0-.97,0ZM214.15,243.24c1.43,0,2.83.02,4.21.03,1.98.02,3.91.04,5.83.04,2.78,0,5.05-.04,7.17-.12,3.94-.15,6.56-.99,7.79-2.48,1-1.22,1.29-3.1.89-5.76-.67-4.35-4.3-7.16-9.26-7.16-.94,0-1.92.1-2.91.31-10.08,2.13-12.88,4.96-13.73,15.13Z"/><path class="cls-3" d="M232.84,203.41c12.97,0,22.85,6.24,29.69,16.65,8.31,12.63,9.79,24.93,2.53,37.04-3.2,5.34-13.48,8.26-20.06,8.63-7.93.45-20.04.54-29.41.54.56,8,8.61,10.47,14.56,11.33,4.33.63,7.82.76,11.31.76,2.73,0,5.46-.08,8.59-.08,1.02,0,2.08,0,3.19.03,8.54.18,13.91,2.63,15.57,8.44,1.66,5.82-5.05,15.41-27,15.41-.31,0-.62,0-.94,0h-.04c-49.51,0-63.47-44.21-51.85-72.77,6.71-16.51,20.71-23.46,38.58-25.64,1.82-.22,3.58-.33,5.29-.33M224.2,245.31c2.44,0,4.84-.03,7.24-.12,8.52-.33,11.64-3.6,10.58-10.54-.83-5.42-5.41-8.85-11.24-8.85-1.07,0-2.18.12-3.32.36-11.48,2.42-14.74,6.15-15.45,19.08,4.25,0,8.27.07,12.19.07M232.84,199.41v4-4h0c-1.88,0-3.82.12-5.77.36-21.51,2.62-35.18,11.81-41.81,28.1-7.09,17.45-4.95,38.72,5.47,54.2,10.45,15.52,28.24,24.07,50.09,24.07.33,0,.66,0,.98,0,18.24,0,25.69-6.26,28.5-9.99,2.47-3.27,3.32-7.11,2.35-10.52-2.08-7.29-8.59-11.11-19.33-11.34-1.06-.02-2.14-.03-3.28-.03-1.65,0-3.17.02-4.65.04-1.34.02-2.64.04-3.94.04-2.98,0-6.35-.09-10.73-.72-4.83-.7-7.54-2.01-9.08-3.39,10.43-.05,18.18-.22,23.59-.53,7.04-.4,19.05-3.55,23.26-10.57,7.77-12.96,6.89-26.85-2.62-41.3-7.94-12.07-19.36-18.45-33.03-18.45h0ZM216.37,241.26c1.05-7.95,3.93-9.5,11.92-11.19.85-.18,1.69-.27,2.49-.27,3.98,0,6.77,2.09,7.28,5.46.21,1.4.31,3.26-.45,4.18-.48.58-1.94,1.58-6.33,1.75-2.09.08-4.34.12-7.09.12-1.91,0-3.84-.02-5.81-.04-.67,0-1.34-.01-2.01-.02h0Z"/><path class="cls-2" d="M329.01,515.58c-27.15,0-41.33-12.61-48.45-23.19-10.06-14.95-12.13-35.49-5.28-52.33,6.32-15.55,19.47-24.34,40.19-26.87,1.87-.23,3.73-.34,5.53-.34,12.97,0,23.81,6.07,31.37,17.54,9.05,13.75,9.91,26.93,2.57,39.17-3.81,6.35-15.04,9.22-21.66,9.6-5.98.34-14.87.52-27.11.54,1.3,3.88,5.47,6.35,12.43,7.36,4.52.66,8.11.74,11.02.74h0c1.31,0,2.62-.02,3.97-.04,1.47-.02,2.99-.04,4.62-.04,1.03,0,2.1,0,3.23.03,9.9.21,15.61,3.44,17.45,9.89.8,2.81.06,6-2.02,8.77-2.59,3.43-9.52,9.19-26.9,9.19-.32,0-.64,0-.96,0ZM302.32,454.68c1.43,0,2.84.02,4.22.03,1.98.02,3.92.04,5.83.04,2.77,0,5.04-.04,7.15-.12,3.94-.15,6.56-.99,7.79-2.48,1-1.22,1.3-3.1.89-5.76-.67-4.35-4.3-7.16-9.26-7.16-.95,0-1.92.11-2.91.31-10.08,2.13-12.88,4.96-13.72,15.13Z"/><path class="cls-3" d="M321.01,414.85c12.97,0,22.85,6.24,29.69,16.65,8.31,12.63,9.79,24.93,2.53,37.04-3.2,5.34-13.48,8.26-20.06,8.63-7.93.45-20.04.54-29.41.54.56,8,8.61,10.47,14.56,11.33,4.33.63,7.82.76,11.31.76,2.73,0,5.46-.08,8.59-.08,1.02,0,2.08,0,3.19.03,8.54.18,13.91,2.63,15.57,8.44,1.66,5.82-5.05,15.41-27,15.41-.31,0-.62,0-.94,0h-.04c-49.51,0-63.47-44.21-51.85-72.77,6.71-16.51,20.71-23.46,38.58-25.64,1.82-.22,3.58-.33,5.29-.33M312.37,456.75c2.44,0,4.84-.03,7.24-.12,8.52-.33,11.64-3.6,10.58-10.54-.83-5.42-5.41-8.85-11.24-8.85-1.07,0-2.18.12-3.32.36-11.48,2.42-14.74,6.15-15.45,19.08,4.25,0,8.27.07,12.19.07M321.01,410.85v4-4h0c-1.88,0-3.82.12-5.77.36-21.51,2.62-35.18,11.81-41.81,28.1-7.09,17.45-4.95,38.72,5.47,54.2,10.45,15.52,28.24,24.07,50.09,24.07.33,0,.66,0,.98,0,18.24,0,25.69-6.26,28.5-9.98,2.47-3.27,3.32-7.11,2.35-10.52-2.08-7.29-8.59-11.11-19.33-11.34-1.06-.02-2.13-.03-3.28-.03-1.65,0-3.17.02-4.65.04-1.34.02-2.64.04-3.94.04-2.98,0-6.35-.09-10.73-.72-4.83-.7-7.54-2.01-9.08-3.39,10.43-.05,18.18-.22,23.59-.53,7.04-.4,19.05-3.55,23.26-10.57,7.77-12.96,6.89-26.85-2.62-41.3-7.94-12.07-19.36-18.45-33.03-18.45h0ZM304.54,452.69c1.05-7.95,3.93-9.5,11.92-11.19.85-.18,1.69-.27,2.49-.27,3.98,0,6.77,2.09,7.28,5.46.21,1.4.31,3.26-.45,4.18-.48.58-1.94,1.58-6.33,1.75-2.09.08-4.34.12-7.09.12-1.91,0-3.84-.02-5.81-.04-.67,0-1.34-.01-2.01-.02h0Z"/><path class="cls-2" d="M143.09,304.15c-27.15,0-41.32-12.61-48.44-23.19-10.06-14.95-12.13-35.49-5.28-52.34,6.32-15.55,19.47-24.34,40.19-26.87,1.88-.23,3.74-.34,5.53-.34,12.96,0,23.81,6.07,31.36,17.55,9.05,13.75,9.91,26.93,2.57,39.17-3.81,6.35-15.04,9.22-21.66,9.6-5.98.34-14.87.52-27.11.54,1.3,3.88,5.47,6.35,12.44,7.36,4.52.65,8.11.74,11.02.74h0c1.31,0,2.61-.02,3.96-.04,1.47-.02,2.98-.04,4.61-.04,1.04,0,2.11,0,3.25.03,9.9.21,15.6,3.44,17.45,9.88.8,2.81.06,6-2.02,8.77-2.59,3.43-9.53,9.19-26.9,9.19-.32,0-.97,0-.97,0ZM116.41,243.24c1.43,0,2.83.02,4.21.03,1.98.02,3.91.04,5.83.04,2.78,0,5.05-.04,7.17-.12,3.94-.15,6.56-.99,7.79-2.48,1-1.22,1.29-3.1.89-5.76-.67-4.35-4.3-7.16-9.26-7.16-.94,0-1.92.1-2.91.31-10.09,2.13-12.88,4.96-13.73,15.13Z"/><path class="cls-3" d="M135.1,203.41c12.97,0,22.85,6.24,29.69,16.65,8.31,12.63,9.79,24.93,2.53,37.04-3.2,5.34-13.48,8.26-20.06,8.63-7.93.45-20.04.54-29.41.54.56,8,8.61,10.47,14.56,11.33,4.33.63,7.82.76,11.31.76,2.73,0,5.46-.08,8.59-.08,1.02,0,2.08,0,3.19.03,8.54.18,13.91,2.63,15.57,8.44,1.66,5.82-5.05,15.41-27,15.41-.31,0-.62,0-.94,0h-.04c-49.51,0-63.47-44.21-51.85-72.77,6.71-16.51,20.71-23.46,38.58-25.64,1.82-.22,3.58-.33,5.29-.33M126.46,245.31c2.44,0,4.84-.03,7.24-.12,8.52-.33,11.64-3.6,10.58-10.54-.83-5.42-5.41-8.85-11.24-8.85-1.07,0-2.18.12-3.32.36-11.48,2.42-14.74,6.15-15.45,19.08,4.25,0,8.27.07,12.19.07M135.1,199.41v4-4h0c-1.88,0-3.82.12-5.77.36-21.51,2.62-35.18,11.81-41.81,28.1-7.09,17.45-4.95,38.72,5.47,54.2,10.45,15.52,28.24,24.07,50.09,24.07.33,0,.66,0,.98,0,18.24,0,25.69-6.26,28.5-9.99,2.47-3.27,3.32-7.11,2.35-10.52-2.08-7.29-8.59-11.11-19.33-11.34-1.06-.02-2.14-.03-3.28-.03-1.65,0-3.17.02-4.65.04-1.34.02-2.64.04-3.94.04-2.98,0-6.35-.09-10.73-.72-4.83-.7-7.54-2.01-9.08-3.39,10.43-.05,18.18-.22,23.59-.53,7.04-.4,19.05-3.55,23.26-10.57,7.77-12.96,6.89-26.85-2.62-41.3-7.94-12.07-19.36-18.45-33.03-18.45h0ZM118.63,241.26c1.05-7.95,3.93-9.5,11.92-11.19.85-.18,1.69-.27,2.49-.27,3.98,0,6.77,2.09,7.28,5.46.21,1.4.31,3.26-.45,4.18-.48.58-1.94,1.58-6.33,1.75-2.09.08-4.34.12-7.09.12-1.91,0-3.84-.02-5.81-.04-.67,0-1.34-.01-2.01-.02h0Z"/><path class="cls-2" d="M389.88,513.5c-6.63,0-11.12-4.26-12.34-11.7-2.02-12.31-3.58-24.9-5.08-37.06-.49-3.96-.98-7.92-1.49-11.87-.22-1.69-.29-3.38-.36-5.01-.07-1.47-.13-2.87-.28-4.26-1.96-17.35,5.89-28.48,22.69-32.2,2.79-.62,10.42-1.05,18.54-1.05,5.39,0,15.06.19,19.2,1.5,9.39,2.94,13.09,12.58,11.12,19.81-1.87,6.9-7.86,10.86-16.42,10.86-.92,0-1.88-.04-2.86-.13-1.43-.13-2.79-.2-4.04-.2-12.51,0-14.07,6.37-15.13,16.86-.37,8.65.5,16.69,1.35,24.47.51,4.68,1.03,9.52,1.29,14.5.44,8.32-4.27,13.73-13.25,15.23-1.01.17-2,.25-2.94.25Z"/><path class="cls-3" d="M411.55,412.36c7.64,0,15.39.4,18.6,1.4,7.99,2.5,11.57,10.84,9.79,17.38-1.65,6.08-6.82,9.38-14.49,9.38-.86,0-1.75-.04-2.68-.13-1.52-.14-2.92-.2-4.22-.21-14.35,0-16.06,8.15-17.13,18.71-.6,14.03,1.94,25.96,2.64,39.22.44,8.42-5.03,12.06-11.59,13.16-.9.15-1.77.23-2.61.23-5.38,0-9.25-3.18-10.37-10.02-2.66-16.21-4.48-32.56-6.56-48.87-.39-3.06-.3-6.17-.64-9.24-1.82-16.08,5.3-26.52,21.13-30.02,2.68-.59,10.34-1,18.11-1M411.55,408.36h0c-6.98,0-15.56.34-18.98,1.1-17.69,3.91-26.3,16.12-24.24,34.37.15,1.32.21,2.68.27,4.12.07,1.67.15,3.4.38,5.17.51,3.96,1,7.91,1.49,11.87,1.51,12.18,3.07,24.78,5.1,37.14,1.39,8.5,6.61,13.37,14.32,13.37,1.05,0,2.15-.1,3.27-.28,9.97-1.67,15.41-7.98,14.92-17.31-.26-5.03-.79-9.9-1.3-14.61-.87-8.04-1.69-15.64-1.34-24.11,1.08-10.66,2.59-15,13.13-15,1.19,0,2.49.06,3.86.19,1.04.09,2.06.14,3.04.14,9.53,0,16.22-4.49,18.35-12.33,2.21-8.13-1.93-18.94-12.46-22.24-4.4-1.38-14.29-1.59-19.8-1.59h0Z"/><path class="cls-2" d="M470.06,513.5c-6.63,0-11.12-4.26-12.34-11.7-2.02-12.31-3.58-24.9-5.08-37.06-.49-3.96-.98-7.92-1.49-11.87-.22-1.69-.29-3.38-.36-5.01-.07-1.47-.13-2.87-.28-4.26-1.96-17.35,5.89-28.48,22.69-32.2,2.79-.62,10.42-1.05,18.54-1.05,5.39,0,15.06.19,19.2,1.5,9.39,2.94,13.09,12.58,11.12,19.81-1.87,6.9-7.86,10.86-16.42,10.86-.92,0-1.88-.04-2.86-.13-1.43-.13-2.79-.2-4.04-.2-12.51,0-14.07,6.37-15.13,16.86-.37,8.65.5,16.69,1.35,24.47.51,4.68,1.03,9.52,1.29,14.5.44,8.32-4.27,13.73-13.25,15.23-1.01.17-2,.25-2.94.25Z"/><path class="cls-3" d="M491.73,412.36c7.64,0,15.39.4,18.6,1.4,7.99,2.5,11.57,10.84,9.79,17.38-1.65,6.08-6.82,9.38-14.49,9.38-.86,0-1.75-.04-2.68-.13-1.52-.14-2.92-.2-4.22-.21-14.35,0-16.06,8.15-17.13,18.71-.6,14.03,1.94,25.96,2.64,39.22.44,8.42-5.03,12.06-11.59,13.16-.9.15-1.77.23-2.61.23-5.38,0-9.25-3.18-10.37-10.02-2.66-16.21-4.48-32.56-6.56-48.87-.39-3.06-.3-6.17-.64-9.24-1.82-16.08,5.3-26.52,21.13-30.02,2.68-.59,10.34-1,18.11-1M491.73,408.36h0c-6.98,0-15.56.34-18.98,1.1-17.69,3.91-26.3,16.12-24.24,34.37.15,1.32.21,2.68.27,4.12.07,1.67.15,3.4.38,5.17.51,3.96,1,7.91,1.49,11.87,1.51,12.18,3.07,24.78,5.1,37.14,1.39,8.5,6.61,13.37,14.32,13.37,1.05,0,2.15-.1,3.27-.28,9.97-1.67,15.41-7.98,14.92-17.31-.26-5.03-.79-9.9-1.3-14.61-.87-8.04-1.69-15.64-1.34-24.11,1.08-10.66,2.59-15,13.13-15,1.19,0,2.49.06,3.86.19,1.04.09,2.06.14,3.04.14,9.53,0,16.22-4.49,18.35-12.33,2.21-8.13-1.93-18.94-12.46-22.24-4.4-1.38-14.29-1.59-19.8-1.59h0Z"/><path class="cls-2" d="M728.8,202.42c1.67,71.04-42.53,128.47-62.67,148.66-12.07,12.11-28.5,23.06-44.67,28.67-10.88,3.78-23.07-1.8-33.33-6.44-65.92-36.67-110.72-127.24-95-192.72,3.46-17.06,17.57-34.2,34.84-41.83-23.33-24.67-8.39-33.65,16.83-34.34-7.55-22.53-6.66-52.09,3.12-65.61,3.2-4.41,7.99-3.75,12.97-2.26,40.58,12.14,53.67,55.07,55.49,60.46,14.27-18.81,33.45-20.44,54.36-17.5,9.39,1.32,28.84,8.05,31.29,14.16,3.48,8.68-16.03,31.91-27.52,37.59,14.07,4.7,30.63,14.41,39.29,25.5,8.91,11.41,14.73,31.42,15,45.67ZM697.55,240.38c5.5-18.17,6.36-35.59.2-54.36-6.8-20.74-20.97-30.78-40.32-35.11-12.29-2.74-34.52-4.65-49.18-4.79-10.14-.09-37.29,4.36-48.95,7.13-17.87,4.25-30.35,11.39-38,24.64-7.62,13.2-8.12,38.97-4.26,55.52,4.16,17.79,10.85,33.29,20.41,48.92,6.55-5.4,6.85-.41,10.47,3,1.99,1.87,3.45-2.34,7.46-3.91,2.88-1.13,9.3,4.29,7.01,8.1-1.54,2.57-3.12,4.52-5.51,6.15-2.75,1.88-3.66-.37-5.58-1.42-2.37-1.28-5.17,3.77-7.33,1.95,1.27,2.95,7.44,11.95,8.99,13.97,14.66,19.09,28.17,32.6,48.49,41.37,4.11,1.77,11.2,4.44,15.02,2.8,12.21-5.23,23.71-11.69,33.1-22.06,35.43-38.86,42.91-75.17,47.98-91.9ZM623.3,125.9c21.49,2.48,50-19.9,48.8-23.63-2.95-4.23-17.02-3.61-25.64-2.04-13.03,2.38-17.09,15.17-23.16,25.68ZM594.98,120.9c.61-3.09.82-6.62.03-9.62-5.18-19.87-10.52-35.43-31.65-42.95-.55,18.24,1.92,32.49,10.88,46.81,2.3,3.68,5.36,6.97,8.53,9.9,4.75,4.41,10.92,2.31,12.21-4.15ZM541.13,123.92c5.73,6.85,10.59,10.74,19.34,7.8-4.54-8.27-11.03-7.7-19.34-7.8Z"/><path class="cls-4" d="M697.75,186.02c6.15,18.77,5.3,36.19-.2,54.36-5.07,16.73-12.55,53.03-47.98,91.9-9.39,10.37-20.89,16.83-33.1,22.06-3.82,1.64-10.91-1.03-15.02-2.8-20.32-8.76-33.82-22.28-48.49-41.37-1.56-2.02-7.73-11.02-8.99-13.97,2.16,1.82,4.96-3.23,7.33-1.95,1.92,1.05,2.83,3.3,5.58,1.42,2.39-1.63,3.97-3.58,5.51-6.15,2.29-3.81-4.13-9.23-7.01-8.1-4.01,1.57-5.47,5.78-7.46,3.91-3.62-3.41-3.92-8.4-10.47-3-9.57-15.64-16.26-31.13-20.41-48.92-3.86-16.55-3.36-42.32,4.26-55.52,7.65-13.25,20.13-20.39,38-24.64,11.66-2.77,38.8-7.22,48.95-7.13,14.66.14,36.89,2.05,49.18,4.79,19.35,4.32,33.52,14.37,40.32,35.11ZM663.42,259.86c4.78-5.55,5.42-10.73,1.53-14.71-4.47-4.58-11.04-3.9-15.49-.06-5.75,4.97-10.48,4.45-16.88,2-3.2-1.22-3.05-1.84-5.99-3.55-4.22-2.45-11.66-.96-13.37,3.27-1.64,4.08,1.11,9.4,2.81,11.52,6.92,8.68,17.2,9.95,26.63,10.4,8.6-.1,16.29-3.68,20.76-8.87ZM663.98,282.62c.17-2.09-2.59-3.66-4.63-3.19-2.85.67-5.65,5.09-8.72,5.02-1.44-.03-2.95-3.07-4.55-4.27-4.88-3.65-6.62,2.04-9.44,4.03-4.17,2.95-.06,14.52,5.28,11.48,2.77-1.57,5.12-4.05,6.38-4,2.42.11,2.53,4.02,5.72,2.87,5.38-1.95,9.35-4.49,9.95-11.95ZM613.76,299.13c.24-6.84-7.3-13.46-14.94-13.11-7.53.34-14.38,6.54-14.09,12.73.3,6.44,5.16,10.24,12.92,10.11,10.1-.17,15.91-3.67,16.11-9.73ZM567.71,267.48c4.09-1.51,16.05-12.07,12.42-19.28-2.51-4.99-9.73-6.87-14.96-3.11-7.78,5.59-15.55,4.35-21.59-.67-2.19-1.82-9.05-2.68-11.67-1.09-4.11,2.5-4.09,7.83-1.84,11.81,3.36,5.94,7.78,10.05,13.79,12.55,7.61,3.17,16.11,2.64,23.85-.22Z"/><path class="cls-1" d="M672.1,102.26c1.2,3.74-27.3,26.11-48.8,23.63,6.07-10.51,10.13-23.3,23.16-25.68,8.62-1.57,22.69-2.19,25.64,2.04Z"/><path class="cls-2" d="M664.95,245.15c3.89,3.98,3.25,9.16-1.53,14.71-4.47,5.19-12.17,8.76-20.76,8.87-9.43-.44-19.71-1.72-26.63-10.4-1.7-2.12-4.45-7.45-2.81-11.52,1.7-4.23,9.15-5.72,13.37-3.27,2.95,1.71,2.8,2.33,5.99,3.55,6.4,2.45,11.12,2.97,16.88-2,4.45-3.84,11.02-4.53,15.49.06Z"/><path class="cls-2" d="M659.35,279.43c2.04-.47,4.8,1.1,4.63,3.19-.6,7.45-4.57,10-9.95,11.95-3.19,1.16-3.31-2.75-5.72-2.87-1.27-.06-3.62,2.43-6.38,4-5.34,3.03-9.46-8.54-5.28-11.48,2.82-1.99,4.56-7.68,9.44-4.03,1.6,1.2,3.1,4.24,4.55,4.27,3.07.07,5.87-4.35,8.72-5.02Z"/><path class="cls-2" d="M598.82,286.02c7.64-.35,15.18,6.27,14.94,13.11-.21,6.06-6.01,9.56-16.11,9.73-7.76.13-12.62-3.68-12.92-10.11-.29-6.19,6.56-12.38,14.09-12.73Z"/><path class="cls-1" d="M595.01,111.29c.79,3,.58,6.53-.03,9.62-1.29,6.46-7.46,8.56-12.21,4.15-3.17-2.94-6.23-6.23-8.53-9.9-8.96-14.31-11.43-28.57-10.88-46.81,21.13,7.51,26.46,23.07,31.65,42.95Z"/><path class="cls-2" d="M580.13,248.2c3.63,7.21-8.33,17.77-12.42,19.28-7.73,2.85-16.24,3.38-23.85.22-6.01-2.5-10.43-6.62-13.79-12.55-2.25-3.98-2.27-9.31,1.84-11.81,2.62-1.59,9.47-.73,11.67,1.09,6.04,5.02,13.81,6.26,21.59.67,5.24-3.76,12.46-1.88,14.96,3.11Z"/><path class="cls-1" d="M560.48,131.72c-8.75,2.94-13.61-.95-19.34-7.8,8.31.1,14.8-.47,19.34,7.8Z"/><path class="cls-5" d="M527.97,138.76c-23.33-24.67-8.39-33.65,16.83-34.34-7.55-22.53-6.66-52.09,3.12-65.61,3.2-4.41,7.99-3.75,12.97-2.26,40.58,12.14,53.67,55.07,55.49,60.46,14.27-18.81,33.45-20.44,54.36-17.5,9.39,1.32,28.84,8.05,31.29,14.16,3.48,8.68-16.03,31.91-27.52,37.59,14.07,4.7,30.63,14.41,39.29,25.5,8.91,11.41,14.73,31.42,15,45.67,1.67,71.04-42.53,128.47-62.67,148.66-12.07,12.11-28.5,23.06-44.67,28.67-10.88,3.78-23.07-1.8-33.33-6.44-65.92-36.67-110.72-127.24-95-192.72,3.46-17.06,17.57-34.2,34.84-41.83Z"/><path class="cls-2" d="M483.19,175.51c-.48,0-.98-.06-1.47-.18-.52-.12-1.25-.26-2.11-.42-6.66-1.23-13.28-2.79-14.73-7.02-.71-2.06-.04-4.26,1.98-6.52,2.17-2.43,5.14-3.62,7.76-4.67.06-.02.12-.05.19-.07-.83-.2-1.62-.38-2.34-.54-2.93-.66-4.68-3.1-4.35-6.09.3-2.7,2.48-5.57,5.92-5.57.46,0,.93.05,1.4.16.4.09.82.18,1.27.27,4.81,1.03,11.4,2.44,13.71,6.93,1.09,2.11,1.04,4.55-.13,7.24-.87,1.99-2.33,3.74-4.37,5.21,2.21,1.01,3.44,3.2,3.14,5.78-.37,3.13-2.89,5.49-5.86,5.49h0Z"/><path class="cls-3" d="M474.04,146.44c.31,0,.63.03.96.11,5.7,1.27,17.22,3.02,13.45,11.7-1.26,2.9-3.94,4.83-6.73,6.13-.69.32-1.41.61-2.12.89,1.78.17,3.53.26,4.68.53,4.59,1.09,3.1,7.72-1.09,7.72-.32,0-.66-.04-1.01-.12-4.09-.97-20.97-2.67-13.83-10.68,2.44-2.74,6.18-3.68,9.39-5.14.7-.32,1.8-1.19,2.52-1.38,0,0,.01-.01.02-.02-.95-.15-2.18-.77-3.01-.99-1.45-.38-2.91-.72-4.37-1.04-4.62-1.03-3.1-7.71,1.14-7.71M474.04,142.44c-4.05,0-7.45,3.16-7.91,7.35-.33,2.97.93,5.61,3.21,7.13-1.41.8-2.78,1.79-3.97,3.13-3.16,3.55-3.04,6.58-2.38,8.5,1.95,5.7,10.56,7.29,16.26,8.34.84.16,1.57.29,2.01.39.64.15,1.29.23,1.93.23,3.99,0,7.36-3.12,7.85-7.26.28-2.37-.45-4.54-1.91-6.11,1.3-1.29,2.3-2.73,2.99-4.31,1.77-4.07,1.01-7.12.07-8.95-2.74-5.33-10.16-6.92-15.07-7.97-.44-.09-.86-.18-1.25-.27-.61-.14-1.23-.21-1.83-.21h0Z"/><path class="cls-2" d="M459.69,139.7c-9.62,0-15.12-1.72-17.34-5.41-1.56-2.59-1.29-5.89.8-9.8,2.4-4.5,6.41-7.34,10.29-10.1,1.18-.84,2.3-1.64,3.37-2.47.02-.02.04-.03.06-.05-.2-.02-.39-.03-.55-.03-.91-.02-1.82-.02-2.74-.02-1.55,0-3.1.02-4.65.05h-.18c-5.42,0-7.93-4.19-7.96-8.09-.04-4.28,2.92-8.88,8.48-8.98.68-.01,1.4-.03,2.16-.05,1.49-.04,3.11-.08,4.79-.08,6.71,0,14.93.63,19.08,5.56,2.23,2.65,2.98,6.2,2.23,10.53-.71,4.07-2.93,7.92-6.62,11.49.3-.02.59-.03.87-.03,5.33,0,8.1,4.15,8.11,8.24,0,4.26-2.97,8.8-8.51,8.82-.87,0-2.15.07-3.63.15-2.29.12-5.13.28-8.07.28Z"/><path class="cls-3" d="M456.24,96.66c9.76,0,21.47,1.47,19.34,13.75-.9,5.17-4.47,9.33-8.46,12.51-.99.79-2.03,1.53-3.07,2.26,2.94-.42,5.8-.96,7.75-.97.01,0,.02,0,.03,0,8.39,0,7.95,13.03-.45,13.07-2.3,0-6.89.43-11.69.43-9.74,0-20.39-1.75-14.78-12.27,2.87-5.37,8.53-8.34,13.13-11.94,1-.78,2.44-2.63,3.53-3.21,0-.01.01-.02.02-.03-.18.01-.36.02-.55.02-1.52,0-3.43-.42-4.69-.44-.92-.02-1.85-.02-2.77-.02-1.56,0-3.12.02-4.68.05-.05,0-.09,0-.14,0-8.27,0-7.79-12.92.56-13.07,1.99-.03,4.39-.13,6.91-.13M456.24,92.66c-1.72,0-3.38.04-4.85.08-.75.02-1.47.04-2.14.05-6.85.12-10.49,5.75-10.45,10.99.05,5.84,4.24,10.07,9.96,10.07h.21c.64-.01,1.25-.02,1.81-.03-3.47,2.51-7.12,5.43-9.4,9.72-2.44,4.57-2.69,8.53-.75,11.77,3.43,5.72,12.52,6.38,19.06,6.38,2.99,0,5.87-.16,8.18-.28,1.45-.08,2.71-.15,3.53-.15,6.84-.03,10.52-5.6,10.51-10.83,0-4.77-2.76-8.5-6.86-9.77,2.39-3.02,3.89-6.23,4.47-9.59.86-4.94-.04-9.03-2.67-12.16-4.68-5.56-13.47-6.27-20.61-6.27h0Z"/><path class="cls-2" d="M496.09,97.61c-.67,0-1.35-.07-2.04-.2-1-.2-2.47-.41-4.18-.66-9.13-1.32-24.4-3.54-27.38-11.24-1.25-3.24-.24-6.89,3.02-10.84,3.71-4.5,8.89-6.81,13.9-9.04,1.54-.69,3-1.34,4.41-2.04.2-.1.44-.25.71-.42-.5-.17-.95-.31-1.32-.39-2.99-.66-5.93-1.21-8.41-1.66-5.55-1.02-7.66-5.57-7.29-9.64.41-4.48,3.9-9.23,9.56-9.23.62,0,1.27.06,1.91.18.77.14,1.6.28,2.46.43,8.96,1.56,21.23,3.69,25.58,11.39,1.96,3.47,2.02,7.62.18,12.34-1.8,4.62-5.42,8.6-10.79,11.86.67.07,1.29.16,1.86.27,5.56,1.09,7.64,5.71,7.24,9.8-.44,4.51-3.83,9.08-9.44,9.08h0Z"/><path class="cls-3" d="M477.08,44.24c.5,0,1.01.05,1.55.14,11.06,2.03,33.31,4.53,26.72,21.48-2.21,5.67-7.22,9.58-12.48,12.29-1.31.67-2.66,1.27-4.01,1.87,3.44.19,6.81.23,9.04.67,9.01,1.78,6.47,14.92-1.81,14.92-.53,0-1.08-.05-1.65-.17-7.94-1.56-40.5-3.57-27.38-19.5,4.49-5.45,11.6-7.53,17.66-10.57,1.32-.66,3.38-2.43,4.74-2.84.01-.01.02-.02.03-.03-1.84-.21-4.25-1.32-5.86-1.68-2.82-.62-5.64-1.16-8.48-1.68-9.07-1.66-6.46-14.9,1.91-14.9M477.08,40.24c-6.85,0-11.07,5.69-11.55,11.05-.53,5.88,3.13,10.72,8.92,11.78,1.25.23,2.62.48,4.06.76-4.95,2.21-10.54,4.72-14.53,9.55-3.75,4.55-4.87,8.87-3.34,12.83,3.14,8.11,16.02,10.62,28.96,12.5,1.68.24,3.12.45,4.07.64.81.16,1.63.24,2.42.24,5.91,0,10.83-4.68,11.43-10.89.49-4.98-2.03-9.26-6.3-11.16,3.73-2.96,6.36-6.39,7.86-10.24,2.07-5.31,1.96-10.04-.3-14.05-4.81-8.52-17.62-10.75-26.98-12.38-.86-.15-1.68-.29-2.45-.43-.76-.14-1.52-.21-2.27-.21h0Z"/></svg>