<?xml version="1.0" encoding="UTF-8"?><svg id="Calque_1" xmlns="http://www.w3.org/2000/svg" viewBox="0 0 640 640"><defs><style>.cls-1{fill:#6c8055;}.cls-1,.cls-2,.cls-3,.cls-4{stroke-width:0px;}.cls-2{fill:#1c081f;}.cls-5{fill:none;stroke:#bdccd4;stroke-miterlimit:10;stroke-width:4px;}.cls-3{fill:#bdccd4;}.cls-4{fill:#875d7b;}</style></defs><path class="cls-2" d="M517.28,308.04c2.72,115.55-69.18,208.95-101.93,241.8-19.63,19.7-46.35,37.5-72.65,46.63-17.7,6.15-37.52-2.92-54.21-10.48-107.22-59.64-180.08-206.95-154.52-313.46,5.63-27.75,28.58-55.63,56.66-68.04-37.95-40.12-13.65-54.73,27.37-55.85-12.28-36.65-10.84-84.72,5.07-106.71,5.2-7.18,13-6.1,21.1-3.68,66,19.74,87.29,89.57,90.25,98.33,23.21-30.6,54.41-33.24,88.42-28.46,15.28,2.15,46.91,13.09,50.89,23.03,5.66,14.11-26.08,51.9-44.76,61.14,22.88,7.64,49.82,23.43,63.91,41.47,14.49,18.55,23.96,51.1,24.4,74.28ZM466.44,369.78c8.95-29.55,10.34-57.89.33-88.42-11.06-33.73-34.11-50.07-65.58-57.1-19.99-4.46-56.15-7.56-79.99-7.79-16.5-.15-60.65,7.09-79.61,11.6-29.06,6.91-49.36,18.52-61.8,40.07-12.39,21.47-13.21,63.38-6.93,90.3,6.76,28.94,17.64,54.14,33.2,79.57,10.66-8.79,11.14-.67,17.03,4.88,3.23,3.04,5.61-3.81,12.13-6.36,4.69-1.83,15.12,6.98,11.4,13.18-2.51,4.18-5.07,7.35-8.96,10-4.48,3.06-5.95-.6-9.08-2.31-3.86-2.09-8.41,6.13-11.93,3.17,2.06,4.8,12.1,19.44,14.63,22.73,23.85,31.05,45.81,53.03,78.86,67.28,6.68,2.88,18.21,7.22,24.43,4.55,19.86-8.51,38.56-19.02,53.83-35.88,57.63-63.21,69.8-122.26,78.04-149.47ZM345.68,183.57c34.96,4.03,81.32-32.36,79.37-38.44-4.79-6.88-27.68-5.87-41.7-3.32-21.19,3.87-27.79,24.67-37.67,41.76ZM299.62,175.45c1-5.02,1.33-10.76.05-15.64-8.43-32.32-17.11-57.63-51.47-69.85-.9,29.66,3.12,52.85,17.69,76.13,3.74,5.98,8.72,11.33,13.87,16.11,7.73,7.17,17.76,3.75,19.86-6.75ZM212.04,180.36c9.32,11.14,17.23,17.47,31.46,12.69-7.39-13.45-17.94-12.53-31.46-12.69Z"/><path class="cls-4" d="M466.77,281.36c10.01,30.53,8.62,58.87-.33,88.42-8.24,27.21-20.41,86.26-78.04,149.47-15.27,16.86-33.97,27.37-53.83,35.88-6.22,2.67-17.75-1.67-24.43-4.55-33.05-14.25-55.01-36.23-78.86-67.28-2.53-3.29-12.57-17.93-14.63-22.73,3.52,2.96,8.07-5.26,11.93-3.17,3.13,1.71,4.6,5.37,9.08,2.31,3.89-2.65,6.45-5.82,8.96-10,3.72-6.2-6.71-15.01-11.4-13.18-6.52,2.55-8.9,9.4-12.13,6.36-5.89-5.55-6.37-13.67-17.03-4.88-15.56-25.43-26.44-50.63-33.2-79.57-6.28-26.92-5.46-68.83,6.93-90.3,12.44-21.55,32.74-33.16,61.8-40.07,18.96-4.51,63.11-11.75,79.61-11.6,23.84.23,60,3.33,79.99,7.79,31.47,7.03,54.52,23.37,65.58,57.1ZM410.93,401.46c7.78-9.03,8.81-17.46,2.49-23.93-7.27-7.45-17.96-6.34-25.2-.09-9.36,8.08-17.04,7.23-27.45,3.25-5.2-1.99-4.96-3-9.75-5.78-6.86-3.99-18.97-1.56-21.74,5.32-2.66,6.63,1.81,15.29,4.57,18.74,11.25,14.11,27.97,16.19,43.31,16.91,13.98-.17,26.5-5.98,33.77-14.42ZM411.84,438.48c.27-3.4-4.21-5.96-7.53-5.19-4.64,1.09-9.19,8.28-14.18,8.17-2.35-.05-4.8-5-7.4-6.95-7.93-5.93-10.76,3.32-15.35,6.56-6.79,4.79-.1,23.61,8.59,18.68,4.5-2.55,8.32-6.59,10.38-6.5,3.93.18,4.12,6.54,9.31,4.66,8.75-3.17,15.21-7.31,16.18-19.43ZM330.17,465.34c.39-11.13-11.88-21.9-24.3-21.33-12.25.56-23.39,10.63-22.92,20.7.48,10.47,8.39,16.66,21.01,16.45,16.43-.27,25.87-5.97,26.21-15.82ZM255.27,413.86c6.65-2.45,26.11-19.63,20.2-31.36-4.08-8.11-15.82-11.18-24.34-5.06-12.65,9.09-25.29,7.07-35.11-1.09-3.57-2.96-14.72-4.36-18.98-1.77-6.69,4.06-6.65,12.74-2.99,19.21,5.46,9.66,12.65,16.35,22.43,20.42,12.38,5.15,26.21,4.29,38.79-.35Z"/><path class="cls-1" d="M425.05,145.13c1.95,6.08-44.41,42.47-79.37,38.44,9.88-17.09,16.48-37.89,37.67-41.76,14.02-2.55,36.91-3.56,41.7,3.32Z"/><path class="cls-2" d="M413.42,377.53c6.32,6.47,5.29,14.9-2.49,23.93-7.27,8.44-19.79,14.25-33.77,14.42-15.34-.72-32.06-2.8-43.31-16.91-2.76-3.45-7.23-12.11-4.57-18.74,2.77-6.88,14.88-9.31,21.74-5.32,4.79,2.78,4.55,3.79,9.75,5.78,10.41,3.98,18.09,4.83,27.45-3.25,7.24-6.25,17.93-7.36,25.2.09Z"/><path class="cls-2" d="M404.31,433.29c3.32-.77,7.8,1.79,7.53,5.19-.97,12.12-7.43,16.26-16.18,19.43-5.19,1.88-5.38-4.48-9.31-4.66-2.06-.09-5.88,3.95-10.38,6.5-8.69,4.93-15.38-13.89-8.59-18.68,4.59-3.24,7.42-12.49,15.35-6.56,2.6,1.95,5.05,6.9,7.4,6.95,4.99.11,9.54-7.08,14.18-8.17Z"/><path class="cls-2" d="M305.87,444.01c12.42-.57,24.69,10.2,24.3,21.33-.34,9.85-9.78,15.55-26.21,15.82-12.62.21-20.53-5.98-21.01-16.45-.47-10.07,10.67-20.14,22.92-20.7Z"/><path class="cls-1" d="M299.67,159.81c1.28,4.88.95,10.62-.05,15.64-2.1,10.5-12.13,13.92-19.86,6.75-5.15-4.78-10.13-10.13-13.87-16.11-14.57-23.28-18.59-46.47-17.69-76.13,34.36,12.22,43.04,37.53,51.47,69.85Z"/><path class="cls-2" d="M275.47,382.5c5.91,11.73-13.55,28.91-20.2,31.36-12.58,4.64-26.41,5.5-38.79.35-9.78-4.07-16.97-10.76-22.43-20.42-3.66-6.47-3.7-15.15,2.99-19.21,4.26-2.59,15.41-1.19,18.98,1.77,9.82,8.16,22.46,10.18,35.11,1.09,8.52-6.12,20.26-3.05,24.34,5.06Z"/><path class="cls-1" d="M243.5,193.05c-14.23,4.78-22.14-1.55-31.46-12.69,13.52.16,24.07-.76,31.46,12.69Z"/><path class="cls-5" d="M190.63,204.49c-37.95-40.12-13.65-54.73,27.37-55.85-12.28-36.65-10.84-84.72,5.07-106.71,5.2-7.18,13-6.1,21.1-3.68,66,19.74,87.29,89.57,90.25,98.33,23.21-30.6,54.41-33.24,88.42-28.46,15.28,2.15,46.91,13.09,50.89,23.03,5.66,14.11-26.08,51.9-44.76,61.14,22.88,7.64,49.82,23.43,63.91,41.47,14.49,18.55,23.96,51.1,24.4,74.28,2.72,115.55-69.18,208.95-101.93,241.8-19.63,19.7-46.35,37.5-72.65,46.63-17.7,6.15-37.52-2.92-54.21-10.48-107.22-59.64-180.08-206.95-154.52-313.46,5.63-27.75,28.58-55.63,56.66-68.04Z"/><path class="cls-2" d="M117.8,263.02c-.69,0-1.4-.09-2.1-.25-.83-.2-2.06-.43-3.49-.69-10.47-1.93-20.87-4.35-23.01-10.6-.99-2.89,0-6.04,2.97-9.37,3.33-3.74,7.81-5.53,12.15-7.27,1.32-.53,2.56-1.02,3.77-1.57-.15-.05-.3-.09-.43-.13-2.51-.66-4.97-1.22-7.04-1.68-4.11-.92-6.57-4.35-6.11-8.55.42-3.85,3.51-7.94,8.39-7.94.65,0,1.32.08,2,.23.65.14,1.34.29,2.07.45,7.58,1.62,17.97,3.84,21.45,10.62,1.58,3.08,1.5,6.68-.24,10.7-1.6,3.7-4.59,6.84-8.88,9.39.25.05.5.1.73.15,4.75,1.13,6.47,5.17,6.06,8.68-.46,3.88-3.45,7.82-8.29,7.82h0Z"/><path class="cls-3" d="M102.9,216.98c.5,0,1.02.06,1.56.18,9.28,2.07,28.01,4.92,21.88,19.02-2.05,4.72-6.41,7.86-10.94,9.97-1.13.53-2.29.99-3.45,1.45,2.9.28,5.75.42,7.61.86,7.46,1.77,5.04,12.56-1.77,12.56-.52,0-1.07-.06-1.64-.2-6.66-1.58-34.11-4.34-22.5-17.38,3.97-4.46,10.05-5.98,15.27-8.36,1.14-.52,2.94-1.94,4.1-2.24,0,0,.02-.02.03-.03-1.55-.24-3.55-1.26-4.89-1.61-2.36-.61-4.73-1.16-7.11-1.69-7.52-1.68-5.04-12.54,1.85-12.54M102.9,212.98c-5.3,0-9.77,4.18-10.38,9.72-.58,5.26,2.5,9.56,7.66,10.72.48.11.98.22,1.49.34-3.83,1.58-7.89,3.52-11.01,7.03-4.33,4.86-4.22,8.85-3.37,11.35,2.49,7.27,13.49,9.87,24.54,11.91,1.4.26,2.61.48,3.39.67.86.2,1.72.31,2.57.31,5.22,0,9.63-4.12,10.27-9.59.48-4.1-1.25-7.64-4.46-9.6,2.94-2.32,5.08-5.02,6.4-8.06,2-4.6,2.06-8.77.19-12.41-3.92-7.62-14.84-9.96-22.81-11.66-.72-.15-1.41-.3-2.05-.44-.81-.18-1.63-.27-2.43-.27h0Z"/><path class="cls-2" d="M79.57,204.78c-15.16,0-23.78-2.6-27.13-8.2-2.29-3.82-1.84-8.76,1.33-14.7,3.77-7.05,10.17-11.6,16.36-16,1.94-1.38,3.77-2.68,5.53-4.06.55-.43,1.27-1.17,2.04-1.96.01-.01.02-.02.04-.04-.18-.02-.36-.05-.53-.07-1.16-.15-2.26-.3-3.09-.31-1.48-.03-2.97-.04-4.45-.04-2.53,0-5.07.03-7.6.08h-.26c-7.96,0-11.65-6.18-11.7-11.92-.06-6.36,4.33-13.19,12.56-13.33,1.1-.02,2.28-.05,3.51-.08,2.36-.06,5.03-.13,7.77-.13,10.63,0,23.66.98,30.07,8.6,3.38,4.02,4.51,9.44,3.35,16.1-1.27,7.32-5.72,14.22-13.22,20.54,1.89-.25,3.63-.43,5.1-.44,8.21,0,11.93,6.3,11.94,12.16.01,6.48-4.31,13.06-12.6,13.1-1.45,0-3.54.12-5.96.25-3.71.2-8.32.45-13.06.45Z"/><path class="cls-3" d="M73.95,136.02c15.88,0,34.93,2.39,31.45,22.36-1.46,8.41-7.27,15.17-13.76,20.35-1.62,1.29-3.3,2.49-5,3.68,4.78-.69,9.43-1.57,12.61-1.58.02,0,.03,0,.05,0,13.64,0,12.93,21.2-.73,21.25-3.75.01-11.2.71-19.01.71-15.85,0-33.17-2.85-24.04-19.95,4.66-8.73,13.87-13.56,21.36-19.42,1.63-1.28,3.98-4.27,5.74-5.22.01-.02.02-.04.03-.05-.29.02-.59.03-.9.03-2.48,0-5.57-.68-7.62-.72-1.51-.03-3.01-.04-4.51-.04-2.54,0-5.07.03-7.61.08-.08,0-.15,0-.23,0-13.46,0-12.67-21.02.9-21.26,3.24-.06,7.14-.22,11.24-.22M73.95,132.02c-2.76,0-5.44.07-7.82.13-1.23.03-2.4.06-3.5.08-9.52.17-14.59,8.03-14.53,15.35.06,6.91,4.78,13.9,13.7,13.9.1,0,.2,0,.3,0,2.96-.05,5.35-.08,7.54-.08,1.13,0,2.21,0,3.25.02-1.26.94-2.56,1.86-3.91,2.82-6.38,4.53-12.98,9.22-16.97,16.69-3.52,6.6-3.95,12.21-1.28,16.67,3.75,6.25,12.92,9.17,28.84,9.17,4.8,0,9.44-.25,13.17-.46,2.39-.13,4.46-.24,5.86-.25,9.5-.04,14.61-7.81,14.59-15.1-.01-6.94-4.66-13.96-13.51-14.15,5.33-5.54,8.57-11.49,9.66-17.76,1.27-7.27,0-13.24-3.79-17.73-6.94-8.25-20.54-9.31-31.6-9.31h0Z"/><path class="cls-2" d="M138.77,136.31c-1,0-2.03-.1-3.07-.31-1.66-.33-4.06-.67-6.85-1.08-14.57-2.11-38.97-5.65-43.54-17.49-1.86-4.82-.28-10.33,4.71-16.38,5.84-7.1,14.13-10.79,22.14-14.36,2.52-1.12,4.9-2.18,7.23-3.35.75-.38,1.75-1.06,2.8-1.78.19-.13.38-.26.58-.39-.4-.13-.8-.27-1.19-.41-1.3-.44-2.52-.86-3.48-1.07-4.9-1.08-9.68-1.98-13.72-2.72-8.25-1.51-11.38-8.28-10.83-14.33.61-6.73,5.83-13.88,14.31-13.88.94,0,1.91.09,2.88.27,1.26.23,2.61.46,4.02.71,14.33,2.49,33.95,5.9,40.72,17.91,2.99,5.3,3.06,11.69.22,19.01-3.2,8.21-10.11,15.17-20.57,20.68,2.63.15,5.04.35,6.98.73,8.27,1.63,11.37,8.5,10.78,14.59-.66,6.78-5.72,13.64-14.11,13.64h0Z"/><path class="cls-3" d="M107.85,50.76c.81,0,1.65.08,2.52.24,17.99,3.29,54.19,7.36,43.46,34.93-3.59,9.22-11.74,15.58-20.29,19.98-2.13,1.1-4.32,2.07-6.52,3.04,5.59.32,11.08.38,14.7,1.09,14.65,2.89,10.52,24.27-2.95,24.27-.86,0-1.75-.09-2.68-.27-12.91-2.55-65.87-5.81-44.53-31.72,7.3-8.86,18.87-12.24,28.72-17.19,2.15-1.08,5.5-3.95,7.72-4.62.02-.02.03-.03.05-.05-2.99-.35-6.91-2.15-9.53-2.73-4.58-1.01-9.18-1.88-13.79-2.73-14.75-2.7-10.51-24.24,3.11-24.24M107.85,46.76c-9.66,0-15.61,8.09-16.3,15.7-.63,6.95,2.98,14.74,12.47,16.47,4.02.74,8.79,1.63,13.65,2.7.14.03.28.07.43.11-2.16,1.07-4.4,2.07-6.76,3.12-8.22,3.66-16.73,7.45-22.87,14.91-5.48,6.65-7.17,12.84-5.03,18.38,4.61,11.93,24.82,15.8,45.12,18.75,2.76.4,5.15.75,6.75,1.06,1.16.23,2.33.35,3.46.35,9.48,0,15.37-7.96,16.1-15.45.68-6.99-2.88-14.87-12.38-16.75-.33-.07-.67-.12-1.02-.18,7.91-5.18,13.31-11.4,16.09-18.55,3.07-7.9,2.96-14.87-.34-20.71-7.24-12.83-27.4-16.33-42.13-18.89-1.41-.24-2.75-.48-4-.71-1.09-.2-2.18-.3-3.24-.3h0Z"/></svg>