<?xml version="1.0" encoding="UTF-8"?><svg id="Calque_1" xmlns="http://www.w3.org/2000/svg" viewBox="0 0 640 640"><defs><style>.cls-1{fill:#33212d;}.cls-1,.cls-2,.cls-3{stroke-width:0px;}.cls-2{fill:#aed27a;}.cls-3{fill:#f1808b;}</style></defs><path class="cls-1" d="M517.28,308.04c2.72,115.55-69.18,208.95-101.93,241.8-19.63,19.7-46.35,37.5-72.65,46.63-17.7,6.15-37.52-2.92-54.21-10.48-107.22-59.64-180.08-206.95-154.52-313.46,5.63-27.75,28.58-55.63,56.66-68.04-37.95-40.12-13.65-54.73,27.37-55.85-12.28-36.65-10.84-84.72,5.07-106.71,5.2-7.18,13-6.1,21.1-3.68,66,19.74,87.29,89.57,90.25,98.33,23.21-30.6,54.41-33.24,88.42-28.46,15.28,2.15,46.91,13.09,50.89,23.03,5.66,14.11-26.08,51.9-44.76,61.14,22.88,7.64,49.82,23.43,63.91,41.47,14.49,18.55,23.96,51.1,24.4,74.28ZM466.44,369.78c8.95-29.55,10.34-57.89.33-88.42-11.06-33.73-34.11-50.07-65.58-57.1-19.99-4.46-56.15-7.56-79.99-7.79-16.5-.15-60.65,7.09-79.61,11.6-29.06,6.91-49.36,18.52-61.8,40.07-12.39,21.47-13.21,63.38-6.93,90.3,6.76,28.94,17.64,54.14,33.2,79.57,10.66-8.79,11.14-.67,17.03,4.88,3.23,3.04,5.61-3.81,12.13-6.36,4.69-1.83,15.12,6.98,11.4,13.18-2.51,4.18-5.07,7.35-8.96,10-4.48,3.06-5.95-.6-9.08-2.31-3.86-2.09-8.41,6.13-11.93,3.17,2.06,4.8,12.1,19.44,14.63,22.73,23.85,31.05,45.81,53.03,78.86,67.28,6.68,2.88,18.21,7.22,24.43,4.55,19.86-8.51,38.56-19.02,53.83-35.88,57.63-63.21,69.8-122.26,78.04-149.47ZM345.68,183.57c34.96,4.03,81.32-32.36,79.37-38.44-4.79-6.88-27.68-5.87-41.7-3.32-21.19,3.87-27.79,24.67-37.67,41.76ZM299.62,175.45c1-5.02,1.33-10.76.05-15.64-8.43-32.32-17.11-57.63-51.47-69.85-.9,29.66,3.12,52.85,17.69,76.13,3.74,5.98,8.72,11.33,13.87,16.11,7.73,7.17,17.76,3.75,19.86-6.75ZM212.04,180.36c9.32,11.14,17.23,17.47,31.46,12.69-7.39-13.45-17.94-12.53-31.46-12.69Z"/><path class="cls-3" d="M466.77,281.36c10.01,30.53,8.62,58.87-.33,88.42-8.24,27.21-20.41,86.26-78.04,149.47-15.27,16.86-33.97,27.37-53.83,35.88-6.22,2.67-17.75-1.67-24.43-4.55-33.05-14.25-55.01-36.23-78.86-67.28-2.53-3.29-12.57-17.93-14.63-22.73,3.52,2.96,8.07-5.26,11.93-3.17,3.13,1.71,4.6,5.37,9.08,2.31,3.89-2.65,6.45-5.82,8.96-10,3.72-6.2-6.71-15.01-11.4-13.18-6.52,2.55-8.9,9.4-12.13,6.36-5.89-5.55-6.37-13.67-17.03-4.88-15.56-25.43-26.44-50.63-33.2-79.57-6.28-26.92-5.46-68.83,6.93-90.3,12.44-21.55,32.74-33.16,61.8-40.07,18.96-4.51,63.11-11.75,79.61-11.6,23.84.23,60,3.33,79.99,7.79,31.47,7.03,54.52,23.37,65.58,57.1ZM410.93,401.46c7.78-9.03,8.81-17.46,2.49-23.93-7.27-7.45-17.96-6.34-25.2-.09-9.36,8.08-17.04,7.23-27.45,3.25-5.2-1.99-4.96-3-9.75-5.78-6.86-3.99-18.97-1.56-21.74,5.32-2.66,6.63,1.81,15.29,4.57,18.74,11.25,14.11,27.97,16.19,43.31,16.91,13.98-.17,26.5-5.98,33.77-14.42ZM411.84,438.48c.27-3.4-4.21-5.96-7.53-5.19-4.64,1.09-9.19,8.28-14.18,8.17-2.35-.05-4.8-5-7.4-6.95-7.93-5.93-10.76,3.32-15.35,6.56-6.79,4.79-.1,23.61,8.59,18.68,4.5-2.55,8.32-6.59,10.38-6.5,3.93.18,4.12,6.54,9.31,4.66,8.75-3.17,15.21-7.31,16.18-19.43ZM330.17,465.34c.39-11.13-11.88-21.9-24.3-21.33-12.25.56-23.39,10.63-22.92,20.7.48,10.47,8.39,16.66,21.01,16.45,16.43-.27,25.87-5.97,26.21-15.82ZM255.27,413.86c6.65-2.45,26.11-19.63,20.2-31.36-4.08-8.11-15.82-11.18-24.34-5.06-12.65,9.09-25.29,7.07-35.11-1.09-3.57-2.96-14.72-4.36-18.98-1.77-6.69,4.06-6.65,12.74-2.99,19.21,5.46,9.66,12.65,16.35,22.43,20.42,12.38,5.15,26.21,4.29,38.79-.35Z"/><path class="cls-2" d="M425.05,145.13c1.95,6.08-44.41,42.47-79.37,38.44,9.88-17.09,16.48-37.89,37.67-41.76,14.02-2.55,36.91-3.56,41.7,3.32Z"/><path class="cls-1" d="M413.42,377.53c6.32,6.47,5.29,14.9-2.49,23.93-7.27,8.44-19.79,14.25-33.77,14.42-15.34-.72-32.06-2.8-43.31-16.91-2.76-3.45-7.23-12.11-4.57-18.74,2.77-6.88,14.88-9.31,21.74-5.32,4.79,2.78,4.55,3.79,9.75,5.78,10.41,3.98,18.09,4.83,27.45-3.25,7.24-6.25,17.93-7.36,25.2.09Z"/><path class="cls-1" d="M404.31,433.29c3.32-.77,7.8,1.79,7.53,5.19-.97,12.12-7.43,16.26-16.18,19.43-5.19,1.88-5.38-4.48-9.31-4.66-2.06-.09-5.88,3.95-10.38,6.5-8.69,4.93-15.38-13.89-8.59-18.68,4.59-3.24,7.42-12.49,15.35-6.56,2.6,1.95,5.05,6.9,7.4,6.95,4.99.11,9.54-7.08,14.18-8.17Z"/><path class="cls-1" d="M305.87,444.01c12.42-.57,24.69,10.2,24.3,21.33-.34,9.85-9.78,15.55-26.21,15.82-12.62.21-20.53-5.98-21.01-16.45-.47-10.07,10.67-20.14,22.92-20.7Z"/><path class="cls-2" d="M299.67,159.81c1.28,4.88.95,10.62-.05,15.64-2.1,10.5-12.13,13.92-19.86,6.75-5.15-4.78-10.13-10.13-13.87-16.11-14.57-23.28-18.59-46.47-17.69-76.13,34.36,12.22,43.04,37.53,51.47,69.85Z"/><path class="cls-1" d="M275.47,382.5c5.91,11.73-13.55,28.91-20.2,31.36-12.58,4.64-26.41,5.5-38.79.35-9.78-4.07-16.97-10.76-22.43-20.42-3.66-6.47-3.7-15.15,2.99-19.21,4.26-2.59,15.41-1.19,18.98,1.77,9.82,8.16,22.46,10.18,35.11,1.09,8.52-6.12,20.26-3.05,24.34,5.06Z"/><path class="cls-2" d="M243.5,193.05c-14.23,4.78-22.14-1.55-31.46-12.69,13.52.16,24.07-.76,31.46,12.69Z"/><path class="cls-1" d="M126.34,236.18c6.13-14.11-12.6-16.95-21.88-19.02-8.03-1.8-11.47,10.56-3.41,12.36,2.38.53,4.75,1.08,7.11,1.7,1.34.35,3.35,1.37,4.89,1.61,0,0-.02.02-.03.03-1.17.3-2.97,1.73-4.1,2.24-5.22,2.37-11.3,3.9-15.27,8.36-11.61,13.03,15.84,15.8,22.5,17.38,8.02,1.91,11.44-10.45,3.41-12.36-1.87-.44-4.71-.58-7.61-.86,1.16-.46,2.32-.92,3.45-1.45,4.53-2.11,8.9-5.26,10.94-9.97Z"/><path class="cls-1" d="M105.4,158.37c4.38-25.13-26.92-22.41-42.69-22.14-13.65.24-14.37,21.49-.68,21.25,4.04-.07,8.08-.11,12.12-.04,2.3.04,5.93.9,8.52.69-.01.02-.02.04-.03.05-1.76.94-4.11,3.94-5.74,5.22-7.49,5.86-16.7,10.69-21.36,19.42-13.64,25.54,31.7,19.29,43.05,19.25,13.67-.05,14.37-21.31.68-21.25-3.18.01-7.83.89-12.61,1.58,1.69-1.19,3.38-2.39,5-3.68,6.48-5.18,12.29-11.94,13.76-20.35Z"/><path class="cls-1" d="M153.83,85.93c10.73-27.57-25.47-31.64-43.46-34.93-15.57-2.85-21.25,21.14-5.63,24,4.61.84,9.21,1.72,13.79,2.73,2.61.57,6.53,2.38,9.53,2.73-.02.02-.03.03-.05.05-2.22.67-5.57,3.54-7.72,4.62-9.85,4.95-21.43,8.33-28.72,17.19-21.34,25.91,31.61,29.18,44.53,31.72,15.55,3.07,21.21-20.93,5.63-24-3.62-.71-9.1-.77-14.7-1.09,2.2-.96,4.39-1.94,6.52-3.04,8.55-4.4,16.7-10.76,20.29-19.98Z"/></svg>