<?xml version="1.0" encoding="UTF-8"?><svg id="Calque_1" xmlns="http://www.w3.org/2000/svg" viewBox="0 0 800 640"><defs><style>.cls-1{fill:#33212d;}.cls-1,.cls-2,.cls-3{stroke-width:0px;}.cls-2{fill:#aed27a;}.cls-3{fill:#f1808b;}</style></defs><path class="cls-1" d="M453.13,199.87c-2.13-.66-7.6-1.93-12.46.5-3.13,1.57-5.36,4.35-6.62,8.27-3.55,11.01-7.7,21.7-13.01,33.51-.46-.71-.9-1.39-1.33-2.03-1.41-2.15-2.64-4.02-3.63-5.93l-.97-1.87c-4.03-7.74-8.2-15.74-11.92-23.77-3.21-6.94-10.33-9.31-15.96-8.59-3.8.49-8.82,1.84-11.11,5.48-1.47,2.33-1.58,5.2-.33,8.55,7.78,20.89,16.56,42.93,30.87,62.68,1.45,2,2.06,7.63,1.46,10.37-3.22,14.64-19.48,63.41-25.44,74.95-9.57,18.51-1.38,25.12,1.37,26.71,1.92,1.07,3.89,1.61,5.89,1.61,1.38,0,2.77-.25,4.16-.77,6.46-2.36,11.63-9.9,13.69-15.87,22.9-59.82,42.64-122.67,48.33-141.92,2.38-5.48,4.05-11.78,5.27-19.83.84-5.51-2.41-10.25-8.26-12.06Z"/><path class="cls-1" d="M607.86,412.13c-2.13-.66-7.6-1.93-12.46.5-3.13,1.57-5.36,4.35-6.62,8.27-3.55,11.01-7.7,21.7-13.01,33.51-.46-.71-.9-1.39-1.33-2.03-1.41-2.15-2.64-4.02-3.63-5.93l-.97-1.87c-4.03-7.74-8.2-15.74-11.92-23.77-3.21-6.94-10.33-9.31-15.96-8.59-3.8.49-8.82,1.84-11.11,5.48-1.47,2.33-1.58,5.2-.33,8.55,7.78,20.89,16.56,42.93,30.87,62.68,1.45,2,2.06,7.63,1.46,10.37-3.22,14.64-19.48,63.41-25.44,74.95-9.57,18.51-1.38,25.12,1.37,26.71,1.92,1.07,3.89,1.61,5.89,1.61,1.38,0,2.77-.25,4.16-.77,6.46-2.36,11.63-9.9,13.69-15.87,22.9-59.82,42.64-122.67,48.33-141.92,2.38-5.48,4.05-11.78,5.27-19.83.84-5.51-2.41-10.25-8.26-12.06Z"/><path class="cls-1" d="M317.95,290.08c.07,21.35,5.97,77.74,6.16,85.52.22,9.3-7.73,15.03-13.91,15.29-6.24.26-11.93-4.08-12.99-12.15-2.77-21-12.32-105.61-13.09-125.38-.82-20.89-.56-39.03,12.35-47.73,17.53-11.8,64.1-2.42,70.99,27.64,1.28,5.6,2.28,11.55,1.82,17.21-2.12,26.24-17.55,39.83-44.19,39.64-2-.01-7.14-.04-7.14-.04ZM333.68,261.8c5.73-2.77,7.52-9.11,5.95-18.78-2.39-14.77-15.04-17.01-23.89-14.8-4.34,1.08-4.94,17.09-2.34,31.93.98,5.57,14.6,4.39,20.28,1.65Z"/><path class="cls-1" d="M170.45,357.53c0-5.61,0-21,12.02-20.33,11.1.62,13.63,16.09,14.5,22.06,2.69,18.63,1.13,36.99,4,55.6.65,4.2,4.62,5.12,10.38,5.01,26.49-.48,43.84,13.15,49.68,36.67,7.83,31.52-19.19,60.18-54.17,58.41-11.85-.6-24.07-7.65-25.68-19.24-3.95-28.51-10.77-109.34-10.73-138.17ZM204.99,447.47c-1.72,3.72,1.87,34.93,4.02,38.27,4.48,5,30.86-1.49,25.83-25.32-2.55-12.08-21.18-17.39-29.86-12.94Z"/><path class="cls-1" d="M215.59,266.26c.56,8,8.61,10.47,14.56,11.33,8.81,1.27,14.16.52,23.09.71,8.54.18,13.91,2.63,15.57,8.44,1.69,5.9-5.24,15.68-27.94,15.4-49.54.03-63.51-44.21-51.9-72.77,6.71-16.51,20.71-23.46,38.58-25.64,15.6-1.9,27.23,4.54,34.98,16.32,8.31,12.63,9.79,24.93,2.53,37.04-3.2,5.34-13.48,8.26-20.06,8.63-7.93.45-20.04.54-29.41.54ZM212.01,245.24c6.89,0,13.17.19,19.43-.05,8.52-.33,11.64-3.6,10.58-10.54-.98-6.41-7.21-10.05-14.56-8.5-11.48,2.42-14.74,6.15-15.45,19.08Z"/><path class="cls-1" d="M303.76,477.7c.56,8,8.61,10.47,14.56,11.33,8.81,1.27,14.16.52,23.09.71,8.54.18,13.91,2.63,15.57,8.44,1.69,5.9-5.24,15.68-27.94,15.4-49.54.03-63.51-44.21-51.9-72.77,6.71-16.51,20.71-23.46,38.58-25.64,15.6-1.9,27.23,4.54,34.98,16.32,8.31,12.63,9.79,24.93,2.53,37.04-3.2,5.34-13.48,8.26-20.06,8.63-7.93.45-20.04.54-29.41.54ZM300.18,456.67c6.89,0,13.17.19,19.43-.05,8.52-.33,11.64-3.6,10.58-10.54-.98-6.41-7.21-10.05-14.56-8.5-11.48,2.42-14.74,6.15-15.45,19.08Z"/><path class="cls-1" d="M117.85,266.26c.56,8,8.61,10.47,14.56,11.33,8.81,1.27,14.16.52,23.09.71,8.54.18,13.91,2.63,15.57,8.44,1.69,5.9-5.24,15.68-27.94,15.4-49.54.03-63.51-44.21-51.9-72.77,6.71-16.51,20.71-23.46,38.58-25.64,15.6-1.9,27.23,4.54,34.98,16.32,8.31,12.63,9.79,24.93,2.53,37.04-3.2,5.34-13.48,8.26-20.06,8.63-7.93.45-20.04.54-29.41.54ZM114.27,245.24c6.89,0,13.17.19,19.43-.05,8.52-.33,11.64-3.6,10.58-10.54-.98-6.41-7.21-10.05-14.56-8.5-11.48,2.42-14.74,6.15-15.45,19.08Z"/><path class="cls-1" d="M430.15,413.76c7.99,2.5,11.57,10.84,9.79,17.38-1.84,6.76-8.03,10.09-17.16,9.25-18.25-1.66-20.19,6.98-21.35,18.51-.6,14.03,1.94,25.96,2.64,39.22.44,8.42-5.03,12.06-11.59,13.16-6.72,1.13-11.68-1.9-12.97-9.79-2.66-16.21-4.48-32.56-6.56-48.87-.39-3.06-.3-6.17-.64-9.24-1.82-16.08,5.3-26.52,21.13-30.02,5.31-1.17,30.24-1.63,36.72.4Z"/><path class="cls-1" d="M510.34,413.76c7.99,2.5,11.57,10.84,9.79,17.38-1.84,6.76-8.03,10.09-17.16,9.25-18.25-1.66-20.19,6.98-21.35,18.51-.6,14.03,1.94,25.96,2.64,39.22.44,8.42-5.03,12.06-11.59,13.16-6.72,1.13-11.68-1.9-12.97-9.79-2.66-16.21-4.48-32.56-6.56-48.87-.39-3.06-.3-6.17-.64-9.24-1.82-16.08,5.3-26.52,21.13-30.02,5.31-1.17,30.24-1.63,36.72.4Z"/><path class="cls-1" d="M728.8,202.42c1.67,71.04-42.53,128.47-62.67,148.66-12.07,12.11-28.5,23.06-44.67,28.67-10.88,3.78-23.07-1.8-33.33-6.44-65.92-36.67-110.72-127.24-95-192.72,3.46-17.06,17.57-34.2,34.84-41.83-23.33-24.67-8.39-33.65,16.83-34.34-7.55-22.53-6.66-52.09,3.12-65.61,3.2-4.41,7.99-3.75,12.97-2.26,40.58,12.14,53.67,55.07,55.49,60.46,14.27-18.81,33.45-20.44,54.36-17.5,9.39,1.32,28.84,8.05,31.29,14.16,3.48,8.68-16.03,31.91-27.52,37.59,14.07,4.7,30.63,14.41,39.29,25.5,8.91,11.41,14.73,31.42,15,45.67ZM697.55,240.38c5.5-18.17,6.36-35.59.2-54.36-6.8-20.74-20.97-30.78-40.32-35.11-12.29-2.74-34.52-4.65-49.18-4.79-10.14-.09-37.29,4.36-48.95,7.13-17.87,4.25-30.35,11.39-38,24.64-7.62,13.2-8.12,38.97-4.26,55.52,4.16,17.79,10.85,33.29,20.41,48.92,6.55-5.4,6.85-.41,10.47,3,1.99,1.87,3.45-2.34,7.46-3.91,2.88-1.13,9.3,4.29,7.01,8.1-1.54,2.57-3.12,4.52-5.51,6.15-2.75,1.88-3.66-.37-5.58-1.42-2.37-1.28-5.17,3.77-7.33,1.95,1.27,2.95,7.44,11.95,8.99,13.97,14.66,19.09,28.17,32.6,48.49,41.37,4.11,1.77,11.2,4.44,15.02,2.8,12.21-5.23,23.71-11.69,33.1-22.06,35.43-38.86,42.91-75.17,47.98-91.9ZM623.3,125.9c21.49,2.48,50-19.9,48.8-23.63-2.95-4.23-17.02-3.61-25.64-2.04-13.03,2.38-17.09,15.17-23.16,25.68ZM594.98,120.9c.61-3.09.82-6.62.03-9.62-5.18-19.87-10.52-35.43-31.65-42.95-.55,18.24,1.92,32.49,10.88,46.81,2.3,3.68,5.36,6.97,8.53,9.9,4.75,4.41,10.92,2.31,12.21-4.15ZM541.13,123.92c5.73,6.85,10.59,10.74,19.34,7.8-4.54-8.27-11.03-7.7-19.34-7.8Z"/><path class="cls-3" d="M697.75,186.02c6.15,18.77,5.3,36.19-.2,54.36-5.07,16.73-12.55,53.03-47.98,91.9-9.39,10.37-20.89,16.83-33.1,22.06-3.82,1.64-10.91-1.03-15.02-2.8-20.32-8.76-33.82-22.28-48.49-41.37-1.56-2.02-7.73-11.02-8.99-13.97,2.16,1.82,4.96-3.23,7.33-1.95,1.92,1.05,2.83,3.3,5.58,1.42,2.39-1.63,3.97-3.58,5.51-6.15,2.29-3.81-4.13-9.23-7.01-8.1-4.01,1.57-5.47,5.78-7.46,3.91-3.62-3.41-3.92-8.4-10.47-3-9.57-15.64-16.26-31.13-20.41-48.92-3.86-16.55-3.36-42.32,4.26-55.52,7.65-13.25,20.13-20.39,38-24.64,11.66-2.77,38.8-7.22,48.95-7.13,14.66.14,36.89,2.05,49.18,4.79,19.35,4.32,33.52,14.37,40.32,35.11ZM663.42,259.86c4.78-5.55,5.42-10.73,1.53-14.71-4.47-4.58-11.04-3.9-15.49-.06-5.75,4.97-10.48,4.45-16.88,2-3.2-1.22-3.05-1.84-5.99-3.55-4.22-2.45-11.66-.96-13.37,3.27-1.64,4.08,1.11,9.4,2.81,11.52,6.92,8.68,17.2,9.95,26.63,10.4,8.6-.1,16.29-3.68,20.76-8.87ZM663.98,282.62c.17-2.09-2.59-3.66-4.63-3.19-2.85.67-5.65,5.09-8.72,5.02-1.44-.03-2.95-3.07-4.55-4.27-4.88-3.65-6.62,2.04-9.44,4.03-4.17,2.95-.06,14.52,5.28,11.48,2.77-1.57,5.12-4.05,6.38-4,2.42.11,2.53,4.02,5.72,2.87,5.38-1.95,9.35-4.49,9.95-11.95ZM613.76,299.13c.24-6.84-7.3-13.46-14.94-13.11-7.53.34-14.38,6.54-14.09,12.73.3,6.44,5.16,10.24,12.92,10.11,10.1-.17,15.91-3.67,16.11-9.73ZM567.71,267.48c4.09-1.51,16.05-12.07,12.42-19.28-2.51-4.99-9.73-6.87-14.96-3.11-7.78,5.59-15.55,4.35-21.59-.67-2.19-1.82-9.05-2.68-11.67-1.09-4.11,2.5-4.09,7.83-1.84,11.81,3.36,5.94,7.78,10.05,13.79,12.55,7.61,3.17,16.11,2.64,23.85-.22Z"/><path class="cls-2" d="M672.1,102.26c1.2,3.74-27.3,26.11-48.8,23.63,6.07-10.51,10.13-23.3,23.16-25.68,8.62-1.57,22.69-2.19,25.64,2.04Z"/><path class="cls-1" d="M664.95,245.15c3.89,3.98,3.25,9.16-1.53,14.71-4.47,5.19-12.17,8.76-20.76,8.87-9.43-.44-19.71-1.72-26.63-10.4-1.7-2.12-4.45-7.45-2.81-11.52,1.7-4.23,9.15-5.72,13.37-3.27,2.95,1.71,2.8,2.33,5.99,3.55,6.4,2.45,11.12,2.97,16.88-2,4.45-3.84,11.02-4.53,15.49.06Z"/><path class="cls-1" d="M659.35,279.43c2.04-.47,4.8,1.1,4.63,3.19-.6,7.45-4.57,10-9.95,11.95-3.19,1.16-3.31-2.75-5.72-2.87-1.27-.06-3.62,2.43-6.38,4-5.34,3.03-9.46-8.54-5.28-11.48,2.82-1.99,4.56-7.68,9.44-4.03,1.6,1.2,3.1,4.24,4.55,4.27,3.07.07,5.87-4.35,8.72-5.02Z"/><path class="cls-1" d="M598.82,286.02c7.64-.35,15.18,6.27,14.94,13.11-.21,6.06-6.01,9.56-16.11,9.73-7.76.13-12.62-3.68-12.92-10.11-.29-6.19,6.56-12.38,14.09-12.73Z"/><path class="cls-2" d="M595.01,111.29c.79,3,.58,6.53-.03,9.62-1.29,6.46-7.46,8.56-12.21,4.15-3.17-2.94-6.23-6.23-8.53-9.9-8.96-14.31-11.43-28.57-10.88-46.81,21.13,7.51,26.46,23.07,31.65,42.95Z"/><path class="cls-1" d="M580.13,248.2c3.63,7.21-8.33,17.77-12.42,19.28-7.73,2.85-16.24,3.38-23.85.22-6.01-2.5-10.43-6.62-13.79-12.55-2.25-3.98-2.27-9.31,1.84-11.81,2.62-1.59,9.47-.73,11.67,1.09,6.04,5.02,13.81,6.26,21.59.67,5.24-3.76,12.46-1.88,14.96,3.11Z"/><path class="cls-2" d="M560.48,131.72c-8.75,2.94-13.61-.95-19.34-7.8,8.31.1,14.8-.47,19.34,7.8Z"/><path class="cls-1" d="M488.45,158.24c3.77-8.67-7.75-10.42-13.45-11.7-4.94-1.1-7.05,6.49-2.09,7.6,1.46.33,2.92.66,4.37,1.04.83.22,2.06.84,3.01.99,0,0-.01.01-.02.02-.72.19-1.82,1.06-2.52,1.38-3.21,1.46-6.95,2.4-9.39,5.14-7.14,8.01,9.74,9.71,13.83,10.68,4.93,1.17,7.03-6.42,2.09-7.6-1.15-.27-2.9-.36-4.68-.53.71-.28,1.43-.57,2.12-.89,2.79-1.3,5.47-3.23,6.73-6.13Z"/><path class="cls-1" d="M475.57,110.4c2.69-15.45-16.55-13.78-26.25-13.61-8.39.15-8.83,13.21-.42,13.07,2.49-.04,4.97-.07,7.45-.02,1.42.03,3.65.55,5.24.42,0,.01-.01.02-.02.03-1.08.58-2.53,2.42-3.53,3.21-4.6,3.6-10.27,6.57-13.13,11.94-8.38,15.7,19.49,11.86,26.47,11.83,8.41-.03,8.84-13.1.42-13.07-1.96,0-4.81.55-7.75.97,1.04-.73,2.08-1.47,3.07-2.26,3.99-3.18,7.56-7.34,8.46-12.51Z"/><path class="cls-1" d="M505.35,65.86c6.59-16.95-15.66-19.45-26.72-21.48-9.57-1.75-13.06,13-3.46,14.76,2.84.52,5.66,1.06,8.48,1.68,1.6.35,4.02,1.46,5.86,1.68-.01.01-.02.02-.03.03-1.36.41-3.42,2.18-4.74,2.84-6.06,3.04-13.17,5.12-17.66,10.57-13.12,15.93,19.44,17.94,27.38,19.5,9.56,1.88,13.04-12.87,3.46-14.76-2.23-.44-5.6-.48-9.04-.67,1.35-.59,2.7-1.19,4.01-1.87,5.26-2.7,10.27-6.62,12.48-12.29Z"/></svg>