<?xml version="1.0" encoding="UTF-8"?>
<svg id="Calque_1" data-name="Calque 1" xmlns="http://www.w3.org/2000/svg" version="1.1" viewBox="0 0 640 640">
  <defs>
    <style>
      .cls-1 {
        fill: #875d7b;
      }

      .cls-1, .cls-2, .cls-3, .cls-4 {
        stroke-width: 0px;
      }

      .cls-2 {
        fill: #bdccd4;
      }

      .cls-3 {
        fill: #6c8055;
      }

      .cls-4 {
        fill: #1c081f;
      }
    </style>
  </defs>
  <path class="cls-4" d="M517.3,308c2.7,115.6-69.2,208.9-101.9,241.8-19.6,19.7-46.4,37.5-72.6,46.6-17.7,6.2-37.5-2.9-54.2-10.5-107.2-59.6-180.1-207-154.5-313.5,5.6-27.8,28.6-55.6,56.7-68-37.9-40.1-13.6-54.7,27.4-55.9-12.3-36.7-10.8-84.7,5.1-106.7,5.2-7.2,13-6.1,21.1-3.7,66,19.7,87.3,89.6,90.2,98.3,23.2-30.6,54.4-33.2,88.4-28.5,15.3,2.2,46.9,13.1,50.9,23,5.7,14.1-26.1,51.9-44.8,61.1,22.9,7.6,49.8,23.4,63.9,41.5,14.5,18.6,24,51.1,24.4,74.3h0v.2ZM466.4,369.8c9-29.5,10.3-57.9.3-88.4-11.1-33.7-34.1-50.1-65.6-57.1-20-4.5-56.1-7.6-80-7.8-16.5-.1-60.6,7.1-79.6,11.6-29.1,6.9-49.4,18.5-61.8,40.1-12.4,21.5-13.2,63.4-6.9,90.3,6.8,28.9,17.6,54.1,33.2,79.6,10.7-8.8,11.1-.7,17,4.9,3.2,3,5.6-3.8,12.1-6.4,4.7-1.8,15.1,7,11.4,13.2-2.5,4.2-5.1,7.4-9,10-4.5,3.1-5.9-.6-9.1-2.3-3.9-2.1-8.4,6.1-11.9,3.2,2.1,4.8,12.1,19.4,14.6,22.7,23.9,31,45.8,53,78.9,67.3,6.7,2.9,18.2,7.2,24.4,4.5,19.9-8.5,38.6-19,53.8-35.9,57.6-63.2,69.8-122.3,78-149.5h.2ZM345.7,183.6c35,4,81.3-32.4,79.4-38.4-4.8-6.9-27.7-5.9-41.7-3.3-21.2,3.9-27.8,24.7-37.7,41.8h0ZM299.6,175.4c1-5,1.3-10.8,0-15.6-8.4-32.3-17.1-57.6-51.5-69.8-.9,29.7,3.1,52.8,17.7,76.1,3.7,6,8.7,11.3,13.9,16.1,7.7,7.2,17.8,3.8,19.9-6.8h0ZM212,180.4c9.3,11.1,17.2,17.5,31.5,12.7-7.4-13.4-17.9-12.5-31.5-12.7h0Z"/>
  <path class="cls-1" d="M466.8,281.4c10,30.5,8.6,58.9-.3,88.4-8.2,27.2-20.4,86.3-78,149.5-15.3,16.9-34,27.4-53.8,35.9-6.2,2.7-17.8-1.7-24.4-4.5-33-14.2-55-36.2-78.9-67.3-2.5-3.3-12.6-17.9-14.6-22.7,3.5,3,8.1-5.3,11.9-3.2,3.1,1.7,4.6,5.4,9.1,2.3,3.9-2.6,6.4-5.8,9-10,3.7-6.2-6.7-15-11.4-13.2-6.5,2.5-8.9,9.4-12.1,6.4-5.9-5.5-6.4-13.7-17-4.9-15.6-25.4-26.4-50.6-33.2-79.6-6.3-26.9-5.5-68.8,6.9-90.3,12.4-21.6,32.7-33.2,61.8-40.1,19-4.5,63.1-11.8,79.6-11.6,23.8.2,60,3.3,80,7.8,31.5,7,54.5,23.4,65.6,57.1h-.2ZM411.8,438.5c.3-3.4-4.2-6-7.5-5.2-4.6,1.1-9.2,8.3-14.2,8.2-2.4,0-4.8-5-7.4-7-7.9-5.9-10.8,3.3-15.4,6.6-6.8,4.8-.1,23.6,8.6,18.7,4.5-2.5,8.3-6.6,10.4-6.5,3.9.2,4.1,6.5,9.3,4.7,8.8-3.2,15.2-7.3,16.2-19.4h0ZM330.2,465.3c.4-11.1-11.9-21.9-24.3-21.3-12.2.6-23.4,10.6-22.9,20.7.5,10.5,8.4,16.7,21,16.5,16.4-.3,25.9-6,26.2-15.8h0Z"/>
  <path class="cls-3" d="M425,145.1c2,6.1-44.4,42.5-79.4,38.4,9.9-17.1,16.5-37.9,37.7-41.8,14-2.6,36.9-3.6,41.7,3.3h0Z"/>
  <path class="cls-4" d="M404.3,433.3c3.3-.8,7.8,1.8,7.5,5.2-1,12.1-7.4,16.3-16.2,19.4-5.2,1.9-5.4-4.5-9.3-4.7-2.1,0-5.9,4-10.4,6.5-8.7,4.9-15.4-13.9-8.6-18.7,4.6-3.2,7.4-12.5,15.4-6.6,2.6,2,5,6.9,7.4,7,5,.1,9.5-7.1,14.2-8.2h0Z"/>
  <path class="cls-4" d="M305.9,444c12.4-.6,24.7,10.2,24.3,21.3-.3,9.9-9.8,15.5-26.2,15.8-12.6.2-20.5-6-21-16.5-.5-10.1,10.7-20.1,22.9-20.7h0Z"/>
  <path class="cls-3" d="M299.7,159.8c1.3,4.9,1,10.6,0,15.6-2.1,10.5-12.1,13.9-19.9,6.8-5.1-4.8-10.1-10.1-13.9-16.1-14.6-23.3-18.6-46.5-17.7-76.1,34.4,12.2,43,37.5,51.5,69.8h0Z"/>
  <path class="cls-3" d="M243.5,193.1c-14.2,4.8-22.1-1.6-31.5-12.7,13.5.2,24.1-.8,31.5,12.7Z"/>
  <path class="cls-2" d="M234.1,36.4c3.2,0,6.6.8,10.1,1.8,66,19.7,87.3,89.6,90.2,98.3,17.6-23.2,39.8-30.3,64.4-30.3s15.9.7,24.1,1.9c15.3,2.1,46.9,13.1,50.9,23,5.7,14.1-26.1,51.9-44.8,61.1,22.9,7.6,49.8,23.4,63.9,41.5,14.5,18.5,24,51.1,24.4,74.3,2.7,115.5-69.2,208.9-101.9,241.8-19.6,19.7-46.3,37.5-72.6,46.6-4.1,1.4-8.3,2-12.6,2-14.1,0-28.8-6.7-41.6-12.5-107.2-59.6-180.1-206.9-154.5-313.5,5.6-27.8,28.6-55.6,56.7-68-37.9-40.1-13.7-54.7,27.4-55.9-12.3-36.6-10.8-84.7,5.1-106.7,3-4.1,6.8-5.5,11-5.5M234.1,20.4h0c-10,0-18.2,4.2-24,12.1-12.1,16.7-15.4,40-16.1,56.6-.6,15.1.7,30.6,3.7,45.3-5.3.9-10,2-14.2,3.4-12.8,4.3-21.3,11.5-25.3,21.2-2.5,6-4.3,15.8,1.3,28.7,1.7,3.9,4,8,6.8,12.2-24,16.6-42.4,42.5-47.9,69.1-6.7,28-7.3,58.8-1.9,91.6,5.1,31.1,15.4,62.5,30.6,93.3,15.1,30.6,34.1,58.8,56.5,83.6,23.5,26,49.4,47,77.1,62.4l.6.3.6.3h.3c13.6,6.3,30.4,13.9,47.9,13.9s12.2-1,17.8-2.9c27.7-9.6,56.4-28,78.7-50.5,11.6-11.6,41.3-44,67.1-93.8,12.5-24,22.1-48.7,28.7-73.2,7.8-28.9,11.4-58,10.7-86.4-.5-24.6-10.2-61.2-27.8-83.8-11.5-14.8-28.8-26.9-45.5-35.6,5-5,9.5-10.2,13.2-14.9,15.2-19.6,20.4-35.8,15.4-48.1-2.2-5.6-7.8-14.2-30-23.3-11-4.5-24.2-8.3-33.5-9.6-9.7-1.4-18.3-2-26.3-2-23.2,0-42.4,5.8-58.4,17.8-3.8-8.2-8.9-17.7-15.6-27.4-8.8-12.9-18.9-24-30.1-33.1-13.8-11.3-29.3-19.5-46-24.5-3.9-1.2-9.1-2.5-14.7-2.5h0l.3-.2Z"/>
  <path class="cls-4" d="M213.9,363.1c-4.9,1.3-9.5,4.9-10.4,9.3-.9,4.5,2.3,10,5.5,13.5,1.7,1.9,3.9,3.5,6.2,4.9s5.8,3.7,6.9,3.5c-1.3.3-2.9,1.2-4.1,1.7s-3.2,1.5-4.8,2.3c-2.2,1.2-4.2,2.4-6.1,4-2.9,2.4-4.4,5.2-4.6,6.3-.7,4.2-.2,6.7,2.1,10.2,2.5,3.9,6.9,6.7,12.4,7.1,4,.4,5.9.2,9.7-.8,9.3-2.5,18.2-5.9,26.6-10,7.3-3.5,15.7-6.4,18.7-13.5,3.3-7.9-.9-14.8-8.4-19.7s-2.7-1.8-4.1-2.6c-4.7-3-9.6-5.9-14.8-8.3s-10.1-5.4-15.8-7.2c-4.9-1.5-10.3-2.1-15.3-.8h.3Z"/>
  <path class="cls-4" d="M393.5,363.1c4.9,1.3,9.5,4.9,10.4,9.3.9,4.5-2.3,10-5.5,13.5-1.7,1.9-3.9,3.5-6.2,4.9-1,.6-5.8,3.7-6.9,3.5,1.3.3,2.9,1.2,4.1,1.7s3.2,1.5,4.8,2.3c2.2,1.2,4.2,2.4,6.1,4,2.9,2.4,4.4,5.2,4.6,6.3.7,4.2.2,6.7-2.1,10.2-2.5,3.9-6.9,6.7-12.4,7.1s-5.9.2-9.7-.8c-9.3-2.5-18.2-5.9-26.6-10-7.3-3.5-15.7-6.4-18.7-13.5-3.3-7.9.9-14.8,8.4-19.7,1.3-.9,2.7-1.8,4.1-2.6,4.7-3,9.6-5.9,14.8-8.3,5.3-2.4,10.1-5.4,15.8-7.2,4.9-1.5,10.3-2.1,15.3-.8h-.3Z"/>
</svg>