<?xml version="1.0" encoding="utf-8"?>
<!-- Generator: Adobe Illustrator 28.2.0, SVG Export Plug-In . SVG Version: 6.00 Build 0)  -->
<svg version="1.1" id="Calque_2_00000060717362722839568030000003717898225025554594_"
	 xmlns="http://www.w3.org/2000/svg" xmlns:xlink="http://www.w3.org/1999/xlink" x="0px" y="0px" viewBox="0 0 200.2 90.5"
	 style="enable-background:new 0 0 200.2 90.5;" xml:space="preserve">
<style type="text/css">
	.st0{fill:#EFEFEF;}
	.st1{fill:#969696;}
</style>
<g id="Calque_1-2">
	<path class="st0" d="M142.4,68.5c-2.7-1.1-6.6-1.8-11.6-2.4c-3.3-0.3-5.8-0.7-7.8-1.1c-1.9-0.4-3.3-0.9-4.2-1.5
		c-0.8-0.6-1.3-1.5-1.3-2.5c0-0.9,0.2-1.6,0.7-2.2s1.3-1.1,2.4-1.4c1.2-0.3,2.8-0.5,4.8-0.5c3.3,0,6.4,0.2,9.2,0.6
		c2.8,0.4,5.4,0.9,7.5,1.5c2.2,0.6,3.8,1.2,5,1.8L146,57c-4.9,1.7-11.9-0.1-14.5-2.1c0.2-1.1,0.8-3.5,1.1-5.3c-1.8-0.1-4.6,0-6.6,0
		c-4.5,0-8.2,0.5-10.9,1.5s-4.8,2.3-6,4s-1.9,3.7-1.9,6c0,2.8,0.7,5.1,2.1,6.8s3.5,3,6.3,3.9s6.3,1.7,10.5,2.2
		c3.5,0.4,6.2,0.9,8.1,1.2c1.9,0.4,3.2,0.9,4,1.5c0.7,0.6,1.1,1.4,1.1,2.5c0,0.8-0.2,1.6-0.8,2.2s-1.4,1.1-2.8,1.4
		c-1.4,0.3-3.4,0.5-5.9,0.5c-4.2,0-7.8-0.3-11-0.8c-3.2-0.6-5.8-1.2-7.8-2s-3.5-1.5-4.3-2.2l1.4,8.4v2c1.7,0.4,4.5,0.9,8.3,1.3
		s8.3,0.7,13.3,0.7c3.5,0,6.5-0.2,9.1-0.7s4.6-1.2,6.3-2.2c1.6-1,2.8-2.2,3.6-3.7s1.2-3.3,1.2-5.3c0-2.3-0.5-4.3-1.6-6
		S145.1,69.6,142.4,68.5L142.4,68.5z"/>
	<path class="st0" d="M155.7,89.8c0.3,0,0.6-0.3,1-0.9c0.3-0.6,0.5-1.6,0.5-3V54.2c0-1.4-0.2-2.4-0.5-3s-0.6-0.9-1-1h21.6
		c4,0,7.4,0.4,10.2,1.1c2.8,0.8,5,1.8,6.6,3.1s2.9,2.8,3.8,4.5c0.9,1.7,1.5,3.5,1.8,5.4c0.3,1.9,0.4,3.8,0.4,5.7
		c0,1.8-0.1,3.6-0.4,5.4s-0.9,3.7-1.8,5.3c-0.9,1.7-2.2,3.2-3.9,4.6c-1.7,1.3-3.9,2.4-6.6,3.2c-2.7,0.8-6.1,1.2-10.1,1.2L155.7,89.8
		L155.7,89.8z M170.5,82.5h2.8c3.9,0,7.1-0.3,9.5-1s4.1-1.8,5.2-3.5c1.1-1.7,1.6-4.2,1.6-7.5v-1.2c0-3.4-0.5-6-1.5-7.6
		c-1-1.7-2.7-2.7-5.1-3.3c-2.4-0.5-5.6-0.8-9.8-0.8h-2.8c-1.3,0-2.1,0.1-2.4,0.2c-0.2,0.2-0.4,0.7-0.4,1.6v21c0,1,0.1,1.5,0.4,1.7
		S169.2,82.5,170.5,82.5L170.5,82.5z"/>
	<polygon class="st1" points="98.5,49.5 78.1,49.5 78.2,54.4 98.5,54.4 	"/>
	<path class="st1" d="M93.6,59.4H73.7v19.9h14.9v-9.9h-5v5h-5v-9.9h14.9v19.9H62.2c4.2-3.6,6.8-9,6.8-14.9s-2.7-11.3-6.8-14.9H67
		l0.1-5H0v29.8h24.8v-20H9.9v9.9h5v-5h5v9.9H5V54.4h31.3c-4.2,3.6-6.8,9-6.8,14.9s2.6,11.3,6.8,14.9H0v5h98.5V59.4
		C98.5,59.4,93.5,59.4,93.6,59.4z M34.9,73.4h3.8l1.1,1.1c-0.2,0.3-0.3,0.7-0.3,1.1c0,1.5,1.2,2.6,2.6,2.6s2.6-1.2,2.6-2.6
		s-1-2.6-2.5-2.6c-0.4,0-0.8,0.1-1.1,0.3l-1.6-1.6l0,0l0,0h-4.9c-0.1-0.4-0.1-0.8-0.1-1.2h10.2c0.4,1,1.3,1.8,2.5,1.8
		c1.5,0,2.6-1.2,2.6-2.6s-1.2-2.6-2.6-2.6c-1.2,0-2.1,0.7-2.5,1.8H34.4c0-0.4,0-0.8,0.1-1.2h2.3l2.3-2.3H41c0.4,1,1.3,1.8,2.5,1.8
		c1.5,0,2.6-1.2,2.6-2.6S44.9,62,43.5,62c-1.2,0-2.1,0.7-2.5,1.8h-2.6l0,0l-2.3,2.3h-1.3c1.6-6.5,7.5-11.3,14.4-11.3
		c4.5,0,8.5,2,11.3,5.2c-0.8,0.1-1.6,0.4-2.1,1c-1.5,1.5-1.3,4.7,0.9,5.5c1.2,0.4,3.4-0.1,3-1.7c-0.1-0.5-0.6-1-1.1-1
		c-0.4,0-0.7,0.2-0.7,0.7c0,0.2,0.2,0.4,0.4,0.4c-0.2,0.1-0.5,0-0.7-0.2c-0.1-0.1-0.2-0.3-0.1-0.5c0.2-1.2,1.6-1.2,2.2-0.6
		c0.6,0.7,0.7,1.7,0.2,2.5c-0.5,0.9-2,1.2-3.2,1c-1-0.2-1.7-0.7-2.6-1.1c-0.8-0.3-1.6-0.5-2.4-0.3c-1,0.2-1.8,1-2.1,2
		c-0.1,0.2-0.1,0.3-0.1,0.5c-0.2,0.9,0.1,1.9,0.7,2.7s1.3,1,2.2,1.2c0.5,0.1,1.1,0,1.5-0.3c0.5-0.3,0.9-1.1,0.7-1.7
		c-0.1-0.3-0.3-0.5-0.6-0.7c-0.2-0.1-0.4-0.1-0.5,0s-0.2,0.2-0.2,0.4c0,0.2,0.2,0.3,0.4,0.4c-0.2,0.1-0.5,0-0.7-0.1
		s-0.2-0.5-0.1-0.7s0.3-0.4,0.5-0.5c0.5-0.2,1.1,0.1,1.5,0.5c0.2,0.2,0.3,0.6,0.3,0.9c0,0.5-0.1,1.1-0.5,1.5s-0.9,0.7-1.4,0.9
		c-0.7,0.3-1.5,0.5-2.2,1c-0.4,0.3-0.7,0.6-1,1c-0.2,0.4-0.5,0.8-0.7,1.2c-0.2,0.7-0.2,1.5,0,2.2c0.5,1.1,1.5,1.9,2.7,2
		c0.6,0.1,1.2,0,1.7-0.3s0.9-0.8,0.9-1.4c0.1-0.8-0.4-1.6-1.2-1.8c-0.2-0.1-0.3-0.1-0.5-0.1s-0.3,0.1-0.5,0.2
		c-0.1,0.1-0.2,0.3-0.2,0.5c0,0.1,0.1,0.2,0.2,0.3c0,0,0.3,0.1,0.3,0c0,0.2-0.3,0.2-0.4,0.2c-0.3,0-0.6-0.3-0.6-0.6
		c-0.2-0.7,0.9-1.6,2.2-1c0.5,0.2,0.8,0.6,0.8,0.6c2.6,0.1,4.4-2,4-3.9c-0.2-0.7-0.8-1-1.4-0.8c-0.3,0.1-0.4,0.5-0.2,0.8
		c0.1,0.3,0.4,0.4,0.7,0.3c-0.2,0.3-0.8,0.2-1-0.1c-0.2-0.2-0.2-0.6-0.1-0.9c0.1-0.3,0.4-0.6,0.7-0.6c0.6-0.1,1.5,0,1.7,1
		c0.7,2.4-1.4,4.9-4.2,4.8c0.5,1.2-0.1,2.5-1.2,3.1c-1,0.6-2.2,0.5-3.2,0.1c-1.2-0.5-2.3-1.4-2.5-2.8c-0.1-0.4-0.1-0.8,0-1.2
		c-1-0.3-2.1-0.2-3,0.3s-1.7,1.3-2,2.3c-0.3,0.9-0.5,2.1,0.1,2.9c0.3,0.4,0.8,0.8,1.3,0.8c0.4,0.1,0.8,0,1.2-0.2s0.6-0.6,0.6-0.9
		s-0.1-0.6-0.3-0.8c-0.2-0.2-0.5-0.2-0.6,0c-0.1,0.1,0,0.3,0.1,0.3c-0.2,0-0.4-0.2-0.4-0.5s0.2-0.4,0.5-0.5c0.7-0.2,1.3,0.4,1.4,1
		c0.1,0.6-0.1,1.1-0.5,1.6s-0.9,0.7-1.4,0.8c-0.5,0.2-1,0.2-1.4,0.5C41.1,83,36.5,78.8,34.9,73.4L34.9,73.4z M41.1,75.6
		c0-0.6,0.5-1.1,1.1-1.1s1.1,0.5,1.1,1.1s-0.5,1.1-1.1,1.1S41.1,76.2,41.1,75.6z M46,69.5c0-0.6,0.5-1.1,1.1-1.1s1.1,0.5,1.1,1.1
		s-0.5,1.1-1.1,1.1S46,70.2,46,69.5z M42.3,64.3c0-0.6,0.5-1.1,1.1-1.1s1.1,0.5,1.1,1.1s-0.5,1.1-1.1,1.1S42.3,64.9,42.3,64.3z"/>
	<path class="st0" d="M0.3,41.4c0.1-0.3,0.4-0.7,0.8-1.3s0.9-1.3,1.5-2c0.6-0.8,1.3-1.7,2.2-2.9s2-2.5,3.1-4s2.3-3,3.6-4.6
		c1.2-1.6,2.4-3.1,3.6-4.6s2.3-2.9,3.3-4.3v-0.1H7.5c-2.6,0-4.4,0.1-5.5,0.4s-1.7,0.5-1.8,0.8v-5.4h28.9c-0.2,0.2-0.4,0.6-0.9,1.2
		c-0.4,0.6-1,1.3-1.6,2.1c-1,1.2-2.1,2.7-3.5,4.4c-1.4,1.7-2.8,3.5-4.3,5.4c-1.5,1.9-3,3.7-4.4,5.5c-1.4,1.8-2.8,3.5-3.9,4.9v0.2
		h11.4c2.5,0,4.5-0.1,5.9-0.4c1.4-0.3,2.3-0.5,2.6-0.8l-1.2,4.2v1.3C29.1,41.4,0.3,41.4,0.3,41.4z"/>
	<path class="st0" d="M49.5,42c-3.2,0-5.8-0.4-7.9-1.1s-3.7-1.8-4.8-3.1s-2-2.9-2.5-4.6c-0.5-1.8-0.7-3.7-0.7-5.8
		c0-4.5,1.3-8.1,3.9-10.7s6.5-4,11.6-4c3,0,5.4,0.4,7.2,1.2s3.2,1.9,4.2,3.2s1.6,2.8,1.9,4.3c0.3,1.5,0.5,3,0.5,4.5v2.8
		c0-0.1-0.6-0.2-1.7-0.4c-1.1-0.1-3-0.2-5.6-0.2H39.9c0,3,0.9,5.3,2.7,7s4.4,2.6,7.9,2.6c3,0,5.5-0.4,7.5-1.1s3.3-1.5,3.9-2.2v1.2
		l0.6,4c-0.9,0.5-2.5,1-4.7,1.6C55.5,41.7,52.8,42,49.5,42z M42.3,24.2H57c0-1-0.2-2.1-0.7-3.2c-0.4-1.1-1.2-2.1-2.4-2.9
		s-2.7-1.2-4.8-1.2c-1.7,0-3.2,0.3-4.5,0.9s-2.3,1.3-3,2.2s-1.1,1.9-1.1,2.9c0,0.4,0.1,0.7,0.4,0.9C41.2,24.1,41.6,24.2,42.3,24.2
		L42.3,24.2z"/>
	<path class="st0" d="M68.3,57.1c0.3,0,0.6-0.3,0.8-0.8s0.4-1.5,0.4-2.8V16.9c0-1.3-0.1-2.2-0.4-2.7s-0.5-0.8-0.8-0.9h7.4v1.2
		l-0.1,1.1l0.1,0.1c0.5-0.5,1.2-1,2.2-1.5s2-0.8,3.2-1.1s2.6-0.4,4.1-0.4c3.8,0,6.7,0.6,8.9,1.9c2.2,1.3,3.8,3,4.7,5.2
		s1.4,4.7,1.4,7.5s-0.5,5.2-1.4,7.4s-2.5,3.9-4.7,5.2s-5.2,1.9-9,1.9c-2.2,0-4.1-0.3-5.6-0.8s-2.8-1.2-3.8-2.2l-0.1,0.1l0.1,1.1
		v13.2c0,1.3,0.1,2.2,0.4,2.8s0.5,0.8,0.8,0.8h-8.6V57.1z M84.5,37.7c2.5,0,4.4-0.4,5.8-1.2s2.3-2,2.8-3.5s0.8-3.4,0.8-5.6
		s-0.3-4.1-0.8-5.6s-1.5-2.8-2.8-3.6s-3.3-1.3-5.8-1.3s-4.3,0.5-5.6,1.4c-1.3,1-2.1,2.2-2.6,3.8s-0.7,3.4-0.7,5.3s0.2,3.7,0.8,5.3
		c0.5,1.6,1.4,2.8,2.7,3.7S82.2,37.7,84.5,37.7L84.5,37.7z"/>
	<path class="st0" d="M105.1,41.4c0.3,0,0.6-0.3,0.8-0.8s0.4-1.5,0.4-2.8V3.6c0-1.3-0.1-2.2-0.4-2.7S105.3,0,105.1,0h7.4v16.4
		l-0.1,0.8l0.1,0.1c0.6-0.8,1.4-1.5,2.3-2.2s2.1-1.2,3.6-1.7c1.4-0.5,3.1-0.7,5-0.7c3.8,0,6.6,1.1,8.6,3.2s3,5.4,3,10v11.9
		c0,1.3,0.1,2.2,0.4,2.8c0.3,0.6,0.5,0.8,0.8,0.8h-8.6c0.3,0,0.6-0.3,0.8-0.8c0.3-0.6,0.4-1.5,0.4-2.8V26c0-2.4-0.3-4.2-0.9-5.5
		s-1.4-2.2-2.5-2.8c-1.1-0.5-2.3-0.8-3.7-0.8c-1.5,0-2.9,0.3-4.4,1s-2.6,1.7-3.4,3.1c-0.9,1.4-1.3,3.3-1.3,5.6v11.2
		c0,1.3,0.1,2.2,0.4,2.8s0.5,0.8,0.8,0.8C113.7,41.4,105.1,41.4,105.1,41.4z"/>
	<path class="st0" d="M141.7,56c-2.4,0-4.3-0.2-5.8-0.7c-1.4-0.5-2.3-0.9-2.7-1.4l1.2-6.3v-1.8c0.3,0.8,0.7,1.7,1.4,2.7
		c0.6,0.9,1.4,1.7,2.4,2.4s2.1,1,3.3,1c1.4,0,2.6-0.3,3.5-0.8s1.8-1.3,2.6-2.3s1.5-2.2,2.1-3.5c0.8-1.6,1.3-2.7,1.5-3.3
		c-0.2-0.3-0.6-1.1-1.1-2.2c-0.5-1.2-1.1-2.6-1.9-4.2c-0.7-1.7-1.5-3.4-2.3-5.3c-0.8-1.9-1.6-3.7-2.3-5.5c-0.8-1.8-1.4-3.3-2.1-4.7
		s-1.1-2.3-1.4-2.9c-0.7-1.3-1.3-2.2-1.9-2.8c-0.6-0.6-1-0.9-1.2-1h9.9c-0.3,0-0.5,0.3-0.6,0.9s0.1,1.6,0.6,2.9
		c0.3,0.8,0.8,1.9,1.3,3.3c0.6,1.4,1.2,3,1.9,4.8s1.4,3.6,2.1,5.4c0.7,1.8,1.4,3.5,2,5.1h0.1c0.6-1.6,1.4-3.4,2.1-5.3
		c0.8-1.9,1.5-3.7,2.3-5.5s1.4-3.4,2-4.8s1-2.4,1.3-3.1c0.6-1.3,0.8-2.2,0.7-2.8s-0.3-0.9-0.7-0.9h9.5c-0.2,0-0.6,0.3-1.1,0.9
		c-0.5,0.5-1.1,1.4-1.7,2.7c-0.4,0.7-0.9,1.8-1.7,3.5s-1.6,3.5-2.6,5.6s-2,4.3-3,6.6s-2,4.4-2.9,6.4s-1.6,3.6-2.2,4.9
		c-1.2,2.7-2.6,4.9-4,6.8s-3,3.2-4.7,4.1C146,55.6,144,56,141.7,56L141.7,56z"/>
	<path class="st0" d="M174.3,41.4c0.3,0,0.6-0.3,0.8-0.8c0.3-0.6,0.4-1.5,0.4-2.8V17.5c0-1.3-0.1-2.2-0.4-2.7
		c-0.3-0.5-0.5-0.8-0.8-0.9c1.8,0,3.3-0.1,4.6-0.4c1.3-0.3,2.2-0.5,2.8-0.8v3l-0.1,1l0.1,0.1c0.6-0.8,1.3-1.5,2.2-2.1s1.9-1.1,3-1.5
		s2.4-0.5,3.9-0.5c1.9,0,3.6,0.3,4.9,0.8s2.4,1.1,3,1.6l-1.2,5V22c-0.5-0.6-1.3-1.3-2.3-2s-2.1-1.3-3.4-1.8c-1.2-0.5-2.6-0.7-4-0.7
		c-1.6,0-3.1,0.6-4.3,1.9s-1.9,3.4-1.9,6.4v12c0,1.3,0.1,2.2,0.4,2.8c0.3,0.6,0.5,0.8,0.8,0.8L174.3,41.4L174.3,41.4z"/>
</g>
</svg>
