<?xml version="1.0" encoding="UTF-8"?>
<svg id="a" xmlns="http://www.w3.org/2000/svg" version="1.1" viewBox="0 0 480 480.1">
  <defs>
    <style>
      .cls-1 {
        fill: #192b1b;
        stroke-width: 0px;
      }
    </style>
  </defs>
  <path class="cls-1" d="M378.4,388.7c-7.7-8.7-3.8-34-2.5-44.7s2.6-16,4.9-23.9,6.2-21.8,8.1-21.6c-29.7-1.7-59.9,9-81.9,29,10.5-8.9,19.1-21.3,22.9-34.6,3.8-13.3,4.4-41.9.9-41.3-25.4,4.4-50.9,7-75-4,12.3-1.7,25.9-15.2,31.7-25.7,5.6-10.3,7.4-22.5,5.1-33.9-14.2,3.2-28.4,6.8-42.8,9.4-11.5,2.1-28.1,6.7-38.8.2,17.9-9.2,33.8-22.5,46.2-38.8,1.2-1.6,13.5-20.4,12.2-21.1-15.8-8.1-33.3-12.3-51-12.8-8.8-.2-17.7.5-26.3,2.2s-17.7,2.1-20.6,8c3.3-6.6,6.1-11.9,12.1-30,3.1-9.5,4.5-19.2,5.8-29s1.3-19.4-3.4-29.6c-10.7,10.2-44.9,15-68.2,18.6-11.8,1.8-23.6,3.9-35,7.5s-10.5,3.4-15.2,5.9-14.2,7.7-14.7,10.5c3.7-21.7,1.3-44.4-6.8-64.9-.8-2.1-25.5,19.3-27.2,21.5-7.7,9-13.6,19.6-17.1,30.9-1,3.1-2.6,8.7-2.6,8.7v395c0,.2,376.7,0,394.3,0,20.9.5,66.2-.9,85.7-25.5-21.4-11.8-47.6-14.7-71.1-7.8,18.8-6.2,28.8-16,41.8-30.1,13.7-14.9,20.5-30.7,18.5-50.9-27.2-1.2-46.4.2-71.3,11.5-6.7,3-12.9,7-18.7,11.5h0v-.2Z"/>
</svg>