<?xml version="1.0" encoding="UTF-8"?>
<svg id="b" xmlns="http://www.w3.org/2000/svg" version="1.1" viewBox="0 0 583.4 554.7">
  <defs>
    <style>
      .cls-1 {
        fill: #33222a;
      }

      .cls-1, .cls-2, .cls-3, .cls-4, .cls-5, .cls-6, .cls-7, .cls-8, .cls-9 {
        stroke-width: 0px;
      }

      .cls-2 {
        fill: #4d4434;
      }

      .cls-3 {
        fill: #bcbfa3;
      }

      .cls-4 {
        fill: #18251a;
      }

      .cls-5 {
        fill: #474529;
      }

      .cls-6 {
        fill: #3a232b;
      }

      .cls-10 {
        opacity: .5;
      }

      .cls-7 {
        fill: #192b1b;
      }

      .cls-8 {
        fill: #473d25;
      }

      .cls-9 {
        fill: #3f2831;
      }
    </style>
  </defs>
  <path class="cls-7" d="M461,443.6c-9.3-10.6-4.6-41.3-3-54.3s3.2-19.5,5.9-29,7.5-26.5,9.8-26.3c-36.1-2.1-72.8,10.9-99.5,35.2,12.8-10.8,23.2-25.9,27.8-42.1s5.3-50.9,1.1-50.2c-30.9,5.3-61.8,8.5-91.2-4.9,14.9-2.1,31.5-18.5,38.5-31.2,6.8-12.5,9-27.3,6.2-41.2-12.3,2.8-25.2,4.8-37.2,8.6-3.7,1.1-6.7,2.7-10.5,3.5-3.3.7-13.7-.9-16,1.2,16.1-15.3,27.1-35.1,37.7-54.5,1.7-3.2,3.5-6.4,4.2-9.9s.2-7.5-2.2-10.2c-2.9-3.3-9.4-2.9-13.4-4-6.2-1.7-12-4.6-18.2-6.3-11.3-3-22.9-4.6-34.6-5-10.7-.3-21.5.6-32,2.7s-21.5,2.6-25,9.7c4-8,7.4-14.5,14.7-36.5,3.8-11.6,5.5-23.3,7.1-35.3s1.6-23.6-4.1-36c-13,12.4-54.6,18.2-82.9,22.6-14.3,2.2-28.7,4.7-42.5,9.1s-12.8,4.1-18.5,7.2-17.3,9.3-17.9,12.8c4.5-26.4,1.6-54-8.3-78.9-1-2.5-31,23.5-33.1,26.1C14.5,37.3,7.4,50.2,3.1,64c-1.2,3.8-2,7.3-2.4,10.6H0v480c0,.2,457.8,0,479.2,0,25.4.6,80.5-1.1,104.1-31-26-14.4-57.9-17.9-86.4-9.5,22.8-7.5,35-19.4,50.8-36.6,16.6-18.1,24.9-37.3,22.5-61.8-33.1-1.5-56.4.3-86.6,14-8.2,3.7-15.7,8.5-22.7,14h.1Z"/>
  <path class="cls-3" d="M583.4,523.5h0Z"/>
  <path class="cls-4" d="M444.6,119.1c-15-3-31.2.2-43.3,10,22.1-22.7,25.6-62.4,7.9-89.2-22.6,3.3-43.4,17.9-54.8,38.6-5.6,10.3-8.8,20.5-10,32.3-.6,6-.6,12.1,0,18.1.6,6,.4,15.1,3,16.9-9.3-6.6-17-15-26.9-20.9-6.2-3.6-12.8-6.6-19.6-8.7s-20.3-4.4-20.3-3.9c.7,11.8,3.8,23.4,9,34,4.1,8.3,20.8,30.7,29.8,34.3,21.7,8.7,39.3,1.3,62.2-1.1,14-1.5,29.6-5,41.6-12.5,4.2-2.6,47.9-34.1,48.4-33.5-7.4-7.6-17-12.5-27-14.4h0Z"/>
  <path class="cls-1" d="M267.8,248.8c.7-11.2,8.6-24.7,14-35.4,15.8-31.5,32.1-36.1,74.6-46.6,22.8-5.6,54.1-11.6,76-6.8,31.1,6.8,50,6.2,69.6,36.2,29.1,44.5,24.7,92.2,10.8,129.7-18,48.6-28.6,75.3-53.8,118.9-13,22.5-38.2,23.3-57.1,6.2-20.8-18.9-40.1-39.7-57.5-62-37.6-48.3-79.9-87.6-76.6-140.2h0Z"/>
  <path class="cls-4" d="M331.9,317.2c0,1.1-8.2-3.7-8.8-4.1-4.9-3.1-8.6-6.7-12.9-11.4,1.3,7.3.7,15.2-1.8,21.8-.8,1.9-1.4,3.9-2.1,6-1.5-.8-2.2-3.2-2.7-5.4-1.5-7.3-1.4-14.9-2.3-22.3s-1.1-7-1.9-10.4c-.9-3.3-3.2-8.2-3-8.8-2.4,6.5-5.2,12-10.5,13.4-5.5,1.5-11.5-1.2-15.7-6.6,5.4-9.7,9.7-20.6,12.9-32.2,3.2-11.5,2.9-8.8,1.8-13.6s-4.1-8.9-6.6-11.9c-3.8-4.1-7.6-7.9-11.6-11.6,3.4-4.4,10.1-5.9,14.5-4.9,1,.3.1-14.5,0-15.7-.6-4.3-1.3-9.6-2.5-13.6,2.3,1.7,3.9,4.8,5.2,7.9.7,1.8,3.9,6,3.9,8.1.3-14.5,14.1-30.7,15.1-28.7,7.8,15.7,7.7,38.4-.3,53.9,15.5-15.6,36.4-19.7,54.4-10.5-3.2,15-10.2,28.2-19.5,36.5-4.4,4-9.3,6.8-14.3,8.4-5.1,1.6-10.8-.3-14.3,2.3,13.4,11,23.2,30.2,22.7,53.1l.3.3Z"/>
  <path class="cls-9" d="M214,146.1c11.2.7,24.7,8.6,35.4,13.9,31.5,15.8,36.1,32.1,46.6,74.6,5.6,22.8,11.6,54.1,6.8,76-6.8,31.1-6.2,50-36.2,69.6-44.5,29.1-92.2,24.7-129.7,10.9-48.6-18-75.3-28.6-118.9-53.8-22.5-13-23.3-38.2-6.2-57.1,18.9-20.8,39.7-40.1,62-57.5,48.3-37.6,87.6-79.9,140.1-76.6h.1Z"/>
  <path class="cls-6" d="M109.4,503.1c-7.4-8.4-11.4-23.5-15.1-34.9-11.1-33.5-2.9-48.2,19.8-85.7,12.2-20.1,30.1-46.5,48.9-58.6,26.8-17.2,39.7-31,74.8-23.6,52,10.9,82.6,47.7,99.4,84,21.7,47.1,33,73.5,46,122.1,6.7,25.1-10.5,43.5-36,44.8-28,1.4-56.5.3-84.5-3.2-60.8-7.5-118.4-5.5-153.3-44.9h0Z"/>
  <path class="cls-4" d="M160.8,294.5c.9-.5,2.8,11,2.9,11.8,1,7,.7,12.9,0,20,4.8-5,11.5-8.1,18.4-8.6,2.1,0,4.1-.3,6.2-.6.4,2.1-1,4-2.4,5.6-4.7,5.2-10.7,8.8-15.9,13.4s-4.8,4.6-6.8,7.2-4.2,7.6-4.8,7.6c6.8-.4,13,0,17.9,5.3,5,5.5,7.1,13.5,5.7,20.8-11.4-1.3-23-.9-34.3,1.1s-9,1-11.9,4.6-4.1,8.9-4.7,13.2c-.6,6.2-.9,12.3-1.1,18.6-5.8-1.7-11.7-8.5-14-13.9-.5-1.3-11.5,6.9-12.3,7.6-3,2.7-6.7,6.1-9,9.4-.3-3.4,1.1-6.7,2.6-9.6.9-1.7,2-7.3,3.7-8.3-11.6,6.7-34-1-33.1-3.1,6.9-16.3,24.9-27.2,42.6-25.8-23.1-9.8-40.9-31.3-46.1-55.9,14-3.7,29.3-2.2,42.3,4.2,6.2,3,11.8,7.1,16.6,12s7.3,12.2,11.7,14.9c-.7-20.4,7.6-40.6,25.9-51.2v-.3Z"/>
  <g class="cls-10">
    <ellipse class="cls-8" cx="435.7" cy="193.4" rx="5.6" ry="11.2" transform="translate(-37.8 138.4) rotate(-17.3)"/>
    <ellipse class="cls-8" cx="392.3" cy="218.3" rx="5.6" ry="11.2" transform="translate(-7.9 14.8) rotate(-2.1)"/>
    <ellipse class="cls-8" cx="477.3" cy="306.5" rx="11.2" ry="5.6" transform="translate(67.3 698.4) rotate(-76.4)"/>
    <ellipse class="cls-8" cx="370.3" cy="281.7" rx="5.6" ry="11.2" transform="translate(-46.3 74.5) rotate(-10.8)"/>
    <ellipse class="cls-8" cx="318.2" cy="255.4" rx="5.6" ry="11.2" transform="translate(-42.3 64.3) rotate(-10.8)"/>
    <ellipse class="cls-8" cx="431.6" cy="275.7" rx="5.6" ry="11.2" transform="translate(-10 16.3) rotate(-2.1)"/>
    <ellipse class="cls-8" cx="449.6" cy="368" rx="11.2" ry="5.6" transform="translate(6.2 743.6) rotate(-79.6)"/>
    <ellipse class="cls-8" cx="483" cy="238.9" rx="5.6" ry="11.2" transform="translate(-49.2 154.5) rotate(-17.3)"/>
    <ellipse class="cls-8" cx="343.8" cy="199.9" rx="11.2" ry="5.6" transform="translate(119.3 528.2) rotate(-85.8)"/>
    <ellipse class="cls-8" cx="336.9" cy="324.4" rx="5.6" ry="11.2" transform="translate(-101.5 161.4) rotate(-23.5)"/>
    <ellipse class="cls-8" cx="423.1" cy="419.8" rx="5.5" ry="11.2" transform="translate(-71.3 86.9) rotate(-10.8)"/>
    <ellipse class="cls-8" cx="404.9" cy="335" rx="5.6" ry="11.2" transform="translate(-55.7 82) rotate(-10.8)"/>
    <ellipse class="cls-8" cx="371.9" cy="380.7" rx="5.6" ry="11.2" transform="translate(-121 180) rotate(-23.5)"/>
  </g>
  <g class="cls-10">
    <ellipse class="cls-5" cx="183.2" cy="183" rx="11.2" ry="5" transform="translate(-38.3 49) rotate(-13.8)"/>
    <ellipse class="cls-5" cx="271.9" cy="290.9" rx="9" ry="5.6" transform="translate(-61.5 73.2) rotate(-13.8)"/>
    <ellipse class="cls-5" cx="237.2" cy="251.4" rx="11.2" ry="5.6" transform="translate(-35 38.4) rotate(-8.6)"/>
    <ellipse class="cls-5" cx="174.8" cy="238.9" rx="11.2" ry="5.6" transform="translate(-63.2 62.8) rotate(-17.3)"/>
    <ellipse class="cls-5" cx="188.5" cy="295.1" rx="11.2" ry="5.6" transform="translate(-42.1 31.6) rotate(-8.6)"/>
    <ellipse class="cls-5" cx="251" cy="200.7" rx="9.5" ry="5.6" transform="translate(-7.9 10.3) rotate(-2.3)"/>
    <ellipse class="cls-5" cx="118.5" cy="215.5" rx="11.2" ry="5.2" transform="translate(-91.9 88.1) rotate(-30)"/>
    <ellipse class="cls-5" cx="118.5" cy="281.7" rx="11.2" ry="5.6" transform="translate(-78.4 48) rotate(-17.3)"/>
    <ellipse class="cls-5" cx="69.3" cy="264.7" rx="11.2" ry="5.6" transform="translate(-123.1 70.1) rotate(-30)"/>
    <ellipse class="cls-5" cx="38.2" cy="306.4" rx="11.2" ry="5.6" transform="translate(-31.5 5.6) rotate(-5.9)"/>
  </g>
  <g class="cls-10">
    <ellipse class="cls-2" cx="206.8" cy="331.9" rx="5.6" ry="11.2" transform="translate(-183.2 360.7) rotate(-62.3)"/>
    <ellipse class="cls-2" cx="199" cy="374.8" rx="5.6" ry="11.2" transform="translate(-211.1 265.7) rotate(-47.1)"/>
    <ellipse class="cls-2" cx="317.4" cy="381.6" rx="4.2" ry="11.2" transform="translate(-152.4 221.4) rotate(-31.4)"/>
    <ellipse class="cls-2" cx="228.3" cy="435.2" rx="5.6" ry="11.2" transform="translate(-260 379.6) rotate(-55.8)"/>
    <ellipse class="cls-2" cx="167.5" cy="458.8" rx="5.6" ry="11.2" transform="translate(-306.2 339.6) rotate(-55.8)"/>
    <ellipse class="cls-2" cx="267.3" cy="387.7" rx="5.6" ry="11.2" transform="translate(-198.7 319.9) rotate(-47.1)"/>
    <ellipse class="cls-2" cx="340.9" cy="445" rx="4.7" ry="11.2" transform="translate(-149.2 173) rotate(-23.5)"/>
    <ellipse class="cls-2" cx="273.1" cy="329.2" rx="4" ry="11.2" transform="translate(-145.3 418) rotate(-62.3)"/>
    <ellipse class="cls-2" cx="146.3" cy="401.5" rx="5.6" ry="11.2" transform="translate(-226.9 193.3) rotate(-40.8)"/>
    <ellipse class="cls-2" cx="229.6" cy="494.4" rx="5.6" ry="11.2" transform="translate(-314.5 526.9) rotate(-68.5)"/>
    <ellipse class="cls-2" cx="356.5" cy="504.8" rx="5.5" ry="11.7" transform="translate(-210.8 259.8) rotate(-31.4)"/>
    <ellipse class="cls-2" cx="110.8" cy="467.3" rx="4.2" ry="11.2" transform="translate(-177.3 83) rotate(-23.5)"/>
    <ellipse class="cls-2" cx="167.5" cy="516.1" rx="4.7" ry="11.2" transform="translate(-367.4 424.5) rotate(-62.3)"/>
    <ellipse class="cls-2" cx="249.2" cy="536.5" rx="4" ry="11.7" transform="translate(-310.8 727) rotate(-83.9)"/>
    <ellipse class="cls-2" cx="330.1" cy="540.6" rx="4" ry="11.7" transform="translate(-242.6 811.2) rotate(-83.9)"/>
    <ellipse class="cls-2" cx="290.4" cy="448.4" rx="5.6" ry="11.2" transform="translate(-243.7 436.8) rotate(-55.8)"/>
    <ellipse class="cls-2" cx="294.1" cy="509.5" rx="5.6" ry="11.2" transform="translate(-287.7 596.5) rotate(-68.5)"/>
  </g>
</svg>